#N canvas 588 128 634 575 10;
#X obj 114 57 inlet;
#X obj 507 52 inlet;
#X obj 42 443 outlet;
#X obj 86 443 outlet;
#X obj 132 443 outlet;
#X obj 179 443 outlet;
#X obj 228 442 outlet;
#X obj 271 442 outlet;
#X obj 318 443 outlet;
#X obj 366 444 outlet;
#X floatatom 94 187 5 0 0 3 a0 - -, f 5;
#X floatatom 140 187 5 0 0 3 a1 - -, f 5;
#X floatatom 186 187 5 0 0 3 a2 - -, f 5;
#X floatatom 232 187 5 0 0 3 a3 - -, f 5;
#X floatatom 278 187 5 0 0 3 a4 - -, f 5;
#X floatatom 324 187 5 0 0 3 a5 - -, f 5;
#X floatatom 370 187 5 0 0 3 a6 - -, f 5;
#X floatatom 416 187 5 0 0 3 a7 - -, f 5;
#X obj 193 108 route analog;
#X obj 193 130 route 0 1 2 3 4 5 6 7;
#N canvas 0 22 499 396 display 0;
#X obj 6 7 inlet;
#X obj 6 28 mapping/resample 100;
#X obj 6 50 outlet;
#X obj 54 50 inlet;
#X obj 54 71 mapping/resample 100;
#X obj 54 93 outlet;
#X obj 103 93 inlet;
#X obj 103 114 mapping/resample 100;
#X obj 103 136 outlet;
#X obj 151 136 inlet;
#X obj 151 157 mapping/resample 100;
#X obj 151 179 outlet;
#X obj 200 179 inlet;
#X obj 200 200 mapping/resample 100;
#X obj 200 222 outlet;
#X obj 247 222 inlet;
#X obj 247 243 mapping/resample 100;
#X obj 247 265 outlet;
#X obj 295 265 inlet;
#X obj 295 286 mapping/resample 100;
#X obj 295 308 outlet;
#X obj 345 308 inlet;
#X obj 345 329 mapping/resample 100;
#X obj 345 351 outlet;
#X connect 0 0 1 0;
#X connect 1 0 2 0;
#X connect 3 0 4 0;
#X connect 4 0 5 0;
#X connect 6 0 7 0;
#X connect 7 0 8 0;
#X connect 9 0 10 0;
#X connect 10 0 11 0;
#X connect 12 0 13 0;
#X connect 13 0 14 0;
#X connect 15 0 16 0;
#X connect 16 0 17 0;
#X connect 18 0 19 0;
#X connect 19 0 20 0;
#X connect 21 0 22 0;
#X connect 22 0 23 0;
#X restore 117 161 pd display values without pegging the CPU;
#X obj 73 241 cyclone/speedlim 1000;
#X obj 116 264 cyclone/speedlim 1000;
#X obj 164 285 cyclone/speedlim 1000;
#X obj 209 307 cyclone/speedlim 1000;
#X obj 248 330 cyclone/speedlim 1000;
#X obj 289 351 cyclone/speedlim 1000;
#X obj 327 372 cyclone/speedlim 1000;
#X obj 371 392 cyclone/speedlim 1000;
#X obj 196 218 r \$0-speedlimitrate;
#X obj 237 240 r \$0-speedlimitrate;
#X obj 286 263 r \$0-speedlimitrate;
#X obj 328 284 r \$0-speedlimitrate;
#X obj 369 307 r \$0-speedlimitrate;
#X obj 409 328 r \$0-speedlimitrate;
#X obj 449 351 r \$0-speedlimitrate;
#X obj 490 372 r \$0-speedlimitrate;
#X floatatom 443 443 5 0 0 0 - - -, f 5;
#X obj 489 90 s \$0-speedlimitrate;
#X connect 0 0 18 0;
#X connect 1 0 38 0;
#X connect 10 0 21 0;
#X connect 11 0 22 0;
#X connect 12 0 23 0;
#X connect 13 0 24 0;
#X connect 14 0 25 0;
#X connect 15 0 26 0;
#X connect 16 0 27 0;
#X connect 17 0 28 0;
#X connect 18 0 19 0;
#X connect 19 0 20 0;
#X connect 19 1 20 1;
#X connect 19 2 20 2;
#X connect 19 3 20 3;
#X connect 19 4 20 4;
#X connect 19 5 20 5;
#X connect 19 6 20 6;
#X connect 19 7 20 7;
#X connect 20 0 10 0;
#X connect 20 1 11 0;
#X connect 20 2 12 0;
#X connect 20 3 13 0;
#X connect 20 4 14 0;
#X connect 20 5 15 0;
#X connect 20 6 16 0;
#X connect 20 7 17 0;
#X connect 21 0 2 0;
#X connect 22 0 3 0;
#X connect 23 0 4 0;
#X connect 24 0 5 0;
#X connect 25 0 6 0;
#X connect 26 0 7 0;
#X connect 27 0 8 0;
#X connect 28 0 9 0;
#X connect 28 0 37 0;
#X connect 29 0 21 1;
#X connect 30 0 22 1;
#X connect 31 0 23 1;
#X connect 32 0 24 1;
#X connect 33 0 25 1;
#X connect 34 0 26 1;
#X connect 35 0 27 1;
#X connect 36 0 28 1;
