#N canvas 316 266 576 299 10;
#X obj 255 67 chargerMath;
#X floatatom 172 103 12 0 0 0 - - -, f 12;
#X msg 313 167 1;
#X obj 262 193 energyCounter;
#X obj 274 94 r energycountercliplower;
#X obj 287 111 r energycounterclipupper;
#X obj 300 128 r energycountertime;
#X obj 255 26 inlet;
#X obj 309 26 inlet;
#X obj 356 31 inlet;
#X obj 271 219 outlet;
#X obj 414 36 inlet;
#X obj 469 37 inlet;
#X connect 0 0 1 0;
#X connect 0 0 3 0;
#X connect 2 0 3 4;
#X connect 3 0 10 0;
#X connect 4 0 3 1;
#X connect 5 0 3 2;
#X connect 6 0 3 3;
#X connect 7 0 0 0;
#X connect 8 0 0 1;
#X connect 9 0 0 2;
#X connect 11 0 2 0;
#X connect 12 0 3 5;
#X coords 0 -1 1 1 150 20 1 100 100;
