#N canvas 511 251 686 522 10;
#X obj 227 26 inlet;
#X obj 255 484 outlet;
#X obj 254 376 /;
#X obj 240 328 t b;
#X obj 284 304 +;
#X obj 263 259 t b;
#X obj 299 235 exp;
#X obj 412 23 inlet;
#X msg 271 280 1;
#X msg 246 350 1;
#X obj 311 25 inlet;
#X floatatom 401 413 5 0 0 0 - - -, f 5;
#X obj 284 158 * -1;
#X obj 314 201 + 0;
#X connect 0 0 12 0;
#X connect 2 0 11 0;
#X connect 2 0 1 0;
#X connect 3 0 9 0;
#X connect 4 0 2 1;
#X connect 4 0 3 0;
#X connect 5 0 8 0;
#X connect 6 0 4 1;
#X connect 6 0 5 0;
#X connect 7 0 13 1;
#X connect 8 0 4 0;
#X connect 9 0 2 0;
#X connect 10 0 12 1;
#X connect 12 0 13 0;
#X connect 13 0 6 0;
