#N canvas 734 23 911 710 10;
#X floatatom 60 57 5 0 0 0 - - -, f 5;
#X floatatom 99 59 5 0 0 0 - - -, f 5;
#X floatatom 142 54 5 0 0 0 - - -, f 5;
#X floatatom 183 56 5 0 0 0 - - -, f 5;
#X floatatom 367 227 5 0 0 0 - - -, f 5;
#X floatatom 406 228 5 0 0 0 - - -, f 5;
#X floatatom 447 228 5 0 0 0 - - -, f 5;
#X floatatom 490 228 5 0 0 0 - - -, f 5;
#X obj 461 -28 arduinoData;
#X obj 468 303 tgl 15 0 empty empty empty 17 7 0 10 -262144 -1 -1 0
1;
#X msg 339 292 900000;
#X obj 332 -2 tgl 15 0 empty empty empty 17 7 0 10 -262144 -1 -1 0
1;
#X msg 247 -1 900000;
#X obj 105 313 resistorGraph;
#X obj 105 127 resistorGraph;
#X obj 336 149 pack s f f f f;
#X obj 370 87 t b;
#X obj 502 104 t b;
#X obj 501 157 pack s f f f f;
#X msg 336 118 10k;
#X msg 504 133 1k;
#X obj 345 -89 inlet;
#X obj 468 -89 inlet;
#X obj 678 -99 inlet;
#X obj 670 -72 s \$0-trigger-graph;
#X obj 455 269 r \$0-trigger-graph;
#X obj 554 -98 inlet;
#X obj 334 266 r \$0-sample-rate;
#X obj 241 -39 r \$0-trigger-graph;
#X obj 145 -19 r \$0-sample-rate;
#X obj 439 202 outlet;
#X obj 545 -60 s \$0-sample-rate;
#X obj 800 -89 inlet;
#X obj 798 -53 s \$0-graph-reset;
#X obj 276 68 r \$0-graph-reset;
#X obj 409 322 r \$0-graph-reset;
#X connect 0 0 14 0;
#X connect 1 0 14 1;
#X connect 2 0 14 2;
#X connect 3 0 14 3;
#X connect 4 0 13 0;
#X connect 5 0 13 1;
#X connect 6 0 13 2;
#X connect 7 0 13 3;
#X connect 8 0 0 0;
#X connect 8 0 15 1;
#X connect 8 0 16 0;
#X connect 8 1 1 0;
#X connect 8 1 15 2;
#X connect 8 2 2 0;
#X connect 8 2 15 3;
#X connect 8 3 3 0;
#X connect 8 3 15 4;
#X connect 8 4 4 0;
#X connect 8 4 17 0;
#X connect 8 4 18 1;
#X connect 8 5 5 0;
#X connect 8 5 18 2;
#X connect 8 6 6 0;
#X connect 8 6 18 3;
#X connect 8 7 7 0;
#X connect 8 7 18 4;
#X connect 10 0 13 4;
#X connect 12 0 14 4;
#X connect 15 0 30 0;
#X connect 16 0 19 0;
#X connect 17 0 20 0;
#X connect 18 0 30 0;
#X connect 19 0 15 0;
#X connect 20 0 18 0;
#X connect 21 0 8 0;
#X connect 22 0 8 1;
#X connect 23 0 24 0;
#X connect 25 0 9 0;
#X connect 25 0 13 5;
#X connect 26 0 31 0;
#X connect 27 0 13 4;
#X connect 28 0 14 5;
#X connect 28 0 11 0;
#X connect 29 0 14 4;
#X connect 32 0 33 0;
#X connect 34 0 14 6;
#X connect 35 0 13 6;
#X coords 0 -1 1 1 220 400 1 100 100;
