#N canvas 185 134 571 389 10;
#X obj 118 87 inlet;
#X obj 182 81 inlet;
#X obj 233 79 inlet;
#X obj 372 78 inlet;
#X obj 397 106 tgl 15 0 empty empty empty 17 7 0 10 -262144 -1 -1 0
1;
#X obj 202 178 tgl 15 0 empty empty empty 17 7 0 10 -262144 -1 -1 0
1;
#X obj 152 200 metro;
#X obj 382 184 tgl 15 0 empty empty empty 17 7 0 10 -262144 -1 -1 0
1;
#X msg 313 219 0;
#X obj 103 166 clip 250 10000;
#X obj 136 136 * 250;
#X obj 381 201 metro 750;
#X obj 119 116 pow -1;
#X obj 445 78 inlet;
#X obj 302 84 inlet;
#X obj 264 340 outlet;
#X obj 304 273 f;
#X obj 268 273 +;
#X msg 280 250 -1;
#X floatatom 317 306 5 0 0 0 - - -, f 5;
#X msg 236 246 1;
#X connect 0 0 12 0;
#X connect 1 0 10 1;
#X connect 1 0 9 1;
#X connect 2 0 9 2;
#X connect 3 0 4 0;
#X connect 3 0 7 0;
#X connect 3 0 5 0;
#X connect 5 0 6 0;
#X connect 6 0 20 0;
#X connect 7 0 11 0;
#X connect 8 0 16 0;
#X connect 9 0 6 1;
#X connect 10 0 9 0;
#X connect 11 0 18 0;
#X connect 12 0 10 0;
#X connect 13 0 8 0;
#X connect 14 0 11 1;
#X connect 16 0 17 1;
#X connect 16 0 19 0;
#X connect 17 0 16 0;
#X connect 17 0 15 0;
#X connect 18 0 17 0;
#X connect 20 0 17 0;
