#N canvas 202 444 953 436 10;
#X obj 318 53 unpack f f f f;
#X obj 317 24 inlet;
#X obj 418 52 unpack f f f f;
#X obj 417 23 inlet;
#X obj 517 51 unpack f f f f;
#X obj 516 22 inlet;
#X obj 620 52 unpack f f f f;
#X obj 619 23 inlet;
#X obj 720 51 unpack f f f f;
#X obj 719 22 inlet;
#X obj 819 50 unpack f f f f;
#X obj 818 21 inlet;
#X obj 329 99 +;
#X obj 374 102 +;
#X obj 351 126 +;
#X obj 429 99 +;
#X obj 474 102 +;
#X obj 451 126 +;
#X obj 526 102 +;
#X obj 571 105 +;
#X obj 548 129 +;
#X obj 632 99 +;
#X obj 677 102 +;
#X obj 654 126 +;
#X obj 732 99 +;
#X obj 777 102 +;
#X obj 754 126 +;
#X obj 829 102 +;
#X obj 874 105 +;
#X obj 851 129 +;
#X obj 402 148 +;
#X obj 599 156 +;
#X obj 814 154 +;
#X obj 495 188 +;
#X obj 658 391 outlet;
#X obj 701 211 +;
#X floatatom 183 103 10 0 0 0 - - -, f 10;
#X obj 705 249 / 24;
#X connect 0 0 12 0;
#X connect 0 1 12 1;
#X connect 0 2 13 0;
#X connect 0 3 13 1;
#X connect 1 0 0 0;
#X connect 2 0 15 0;
#X connect 2 1 15 1;
#X connect 2 2 16 0;
#X connect 2 3 16 1;
#X connect 3 0 2 0;
#X connect 4 0 18 0;
#X connect 4 1 18 1;
#X connect 4 2 19 0;
#X connect 4 3 19 1;
#X connect 5 0 4 0;
#X connect 6 0 21 0;
#X connect 6 1 21 1;
#X connect 6 2 22 0;
#X connect 6 3 22 1;
#X connect 7 0 6 0;
#X connect 8 0 24 0;
#X connect 8 1 24 1;
#X connect 8 2 25 0;
#X connect 8 3 25 1;
#X connect 9 0 8 0;
#X connect 10 0 27 0;
#X connect 10 1 27 1;
#X connect 10 2 28 0;
#X connect 10 3 28 1;
#X connect 11 0 10 0;
#X connect 12 0 14 0;
#X connect 13 0 14 1;
#X connect 14 0 30 0;
#X connect 15 0 17 0;
#X connect 16 0 17 1;
#X connect 17 0 30 1;
#X connect 18 0 20 0;
#X connect 19 0 20 1;
#X connect 20 0 31 0;
#X connect 21 0 23 0;
#X connect 22 0 23 1;
#X connect 23 0 31 1;
#X connect 24 0 26 0;
#X connect 25 0 26 1;
#X connect 26 0 32 0;
#X connect 27 0 29 0;
#X connect 28 0 29 1;
#X connect 29 0 32 1;
#X connect 30 0 33 0;
#X connect 31 0 33 1;
#X connect 32 0 35 1;
#X connect 33 0 35 0;
#X connect 35 0 37 0;
#X connect 37 0 36 0;
#X connect 37 0 34 0;
#X coords 0 -1 1 1 150 20 1 100 100;
