#N canvas 597 188 541 408 10;
#X obj 101 24 inlet~;
#X obj 195 162 clip~ -1 1;
#X obj 195 189 expr~ 0.5*$v1*(3 -($v1*$v1));
#X obj 165 225 *~ 0.8;
#X obj 199 98 vd~ \$0-sdelay-L;
#X obj 170 375 outlet~;
#X obj 248 25 inlet;
#X obj 369 26 inlet;
#X obj 159 277 s~ \$0-sdelay-cL;
#X obj 172 321 r~ \$0-sdelay-cL;
#X obj 171 347 *~ 0.8;
#X obj 110 150 *~ 1;
#X obj 181 28 inlet;
#X obj 433 35 inlet;
#X obj 119 72 delwrite~ \$0-sdelay-L 100000;
#X connect 0 0 11 0;
#X connect 0 0 14 0;
#X connect 1 0 2 0;
#X connect 2 0 3 0;
#X connect 2 0 8 0;
#X connect 3 0 8 0;
#X connect 3 0 14 0;
#X connect 4 0 1 0;
#X connect 6 0 4 0;
#X connect 7 0 3 1;
#X connect 9 0 10 0;
#X connect 10 0 5 0;
#X connect 11 0 8 0;
#X connect 12 0 11 1;
#X connect 13 0 10 1;
