#N canvas 781 160 450 300 10;
#X obj 184 224 *~;
#X msg 211 160 1;
#X msg 199 135 0;
#X obj 255 230 *~;
#X msg 272 131 0;
#X msg 284 164 1;
#X obj 98 77 t b;
#X obj 126 76 t b;
#X obj 151 79 t b;
#X obj 200 204 line;
#X obj 200 184 pack 0 50;
#X obj 273 204 line;
#X obj 273 184 pack 0 50;
#X obj 184 224 *~;
#X msg 211 160 1;
#X msg 199 135 0;
#X obj 255 230 *~;
#X msg 272 131 0;
#X msg 284 164 1;
#X obj 126 76 t b;
#X obj 151 79 t b;
#X obj 200 204 line;
#X obj 200 184 pack 0 50;
#X obj 273 204 line;
#X obj 273 184 pack 0 50;
#X obj 86 19 inlet;
#X obj 244 20 inlet~;
#X obj 158 260 outlet~;
#X obj 249 267 outlet~;
#X obj 115 53 route 0 1 2 3;
#X obj 183 78 t b;
#X connect 0 0 27 0;
#X connect 1 0 10 0;
#X connect 2 0 10 0;
#X connect 3 0 28 0;
#X connect 4 0 12 0;
#X connect 5 0 12 0;
#X connect 6 0 2 0;
#X connect 6 0 4 0;
#X connect 7 0 4 0;
#X connect 7 0 1 0;
#X connect 8 0 2 0;
#X connect 8 0 5 0;
#X connect 9 0 0 1;
#X connect 10 0 9 0;
#X connect 11 0 3 1;
#X connect 12 0 11 0;
#X connect 14 0 22 0;
#X connect 15 0 22 0;
#X connect 17 0 24 0;
#X connect 18 0 24 0;
#X connect 19 0 17 0;
#X connect 19 0 14 0;
#X connect 20 0 15 0;
#X connect 20 0 18 0;
#X connect 21 0 13 1;
#X connect 22 0 21 0;
#X connect 23 0 16 1;
#X connect 24 0 23 0;
#X connect 25 0 29 0;
#X connect 26 0 3 0;
#X connect 26 0 0 0;
#X connect 29 0 6 0;
#X connect 29 1 7 0;
#X connect 29 2 8 0;
#X connect 29 3 30 0;
#X connect 30 0 1 0;
#X connect 30 0 5 0;
