#N canvas 9 203 1365 482 10;
#X obj 410 135 inlet~;
#X obj 134 146 hradio 15 1 0 4 empty empty empty 0 -8 0 10 -262144
-1 -1 0;
#X obj 134 131 hradio 15 1 0 4 empty empty empty 0 -8 0 10 -262144
-1 -1 0;
#X obj 134 176 hradio 15 1 0 4 empty empty empty 0 -8 0 10 -262144
-1 -1 0;
#X obj 134 161 hradio 15 1 0 4 empty empty empty 0 -8 0 10 -262144
-1 -1 0;
#X obj 134 206 hradio 15 1 0 4 empty empty empty 0 -8 0 10 -262144
-1 -1 0;
#X obj 134 191 hradio 15 1 0 4 empty empty empty 0 -8 0 10 -262144
-1 -1 0;
#X text 103 132 In 1;
#X text 103 147 In 2;
#X text 103 177 In 4;
#X text 103 162 In 3;
#X text 103 192 In 5;
#X text 103 207 In 6;
#X obj 256 349 outlet~;
#X obj 366 349 outlet~;
#X obj 213 119 s \$0-in1;
#X obj 213 136 s \$0-in2;
#X obj 213 153 s \$0-in3;
#X obj 213 170 s \$0-in4;
#X obj 213 187 s \$0-in5;
#X obj 213 204 s \$0-in6;
#X obj 233 322 catch~ \$0-audio1;
#X obj 354 323 catch~ \$0-audio2;
#X obj 318 215 throw~ \$0-audio1;
#X obj 367 192 throw~ \$0-audio2;
#X obj 302 136 r \$0-in1;
#X obj 318 215 throw~ \$0-audio1;
#X obj 367 192 throw~ \$0-audio2;
#X obj 303 161 multiOutToStereoSwitcher;
#X obj 589 134 inlet~;
#X obj 497 214 throw~ \$0-audio1;
#X obj 546 191 throw~ \$0-audio2;
#X obj 497 214 throw~ \$0-audio1;
#X obj 546 191 throw~ \$0-audio2;
#X obj 482 160 multiOutToStereoSwitcher;
#X obj 759 134 inlet~;
#X obj 667 214 throw~ \$0-audio1;
#X obj 716 191 throw~ \$0-audio2;
#X obj 667 214 throw~ \$0-audio1;
#X obj 716 191 throw~ \$0-audio2;
#X obj 652 160 multiOutToStereoSwitcher;
#X obj 930 132 inlet~;
#X obj 838 212 throw~ \$0-audio1;
#X obj 887 189 throw~ \$0-audio2;
#X obj 838 212 throw~ \$0-audio1;
#X obj 887 189 throw~ \$0-audio2;
#X obj 823 158 multiOutToStereoSwitcher;
#X obj 1109 131 inlet~;
#X obj 1017 211 throw~ \$0-audio1;
#X obj 1066 188 throw~ \$0-audio2;
#X obj 1017 211 throw~ \$0-audio1;
#X obj 1066 188 throw~ \$0-audio2;
#X obj 1002 157 multiOutToStereoSwitcher;
#X obj 1279 131 inlet~;
#X obj 1187 211 throw~ \$0-audio1;
#X obj 1236 188 throw~ \$0-audio2;
#X obj 1187 211 throw~ \$0-audio1;
#X obj 1236 188 throw~ \$0-audio2;
#X obj 1172 157 multiOutToStereoSwitcher;
#X obj 481 135 r \$0-in2;
#X obj 651 135 r \$0-in3;
#X obj 822 133 r \$0-in4;
#X obj 1001 132 r \$0-in5;
#X obj 1171 132 r \$0-in6;
#X text 136 114 0;
#X text 151 114 1;
#X text 165 114 2;
#X text 180 114 b;
#X connect 0 0 28 1;
#X connect 1 0 16 0;
#X connect 2 0 15 0;
#X connect 3 0 18 0;
#X connect 4 0 17 0;
#X connect 5 0 20 0;
#X connect 6 0 19 0;
#X connect 21 0 13 0;
#X connect 22 0 14 0;
#X connect 25 0 28 0;
#X connect 28 0 23 0;
#X connect 28 1 24 0;
#X connect 29 0 34 1;
#X connect 34 0 30 0;
#X connect 34 1 31 0;
#X connect 35 0 40 1;
#X connect 40 0 36 0;
#X connect 40 1 37 0;
#X connect 41 0 46 1;
#X connect 46 0 42 0;
#X connect 46 1 43 0;
#X connect 47 0 52 1;
#X connect 52 0 48 0;
#X connect 52 1 49 0;
#X connect 53 0 58 1;
#X connect 58 0 54 0;
#X connect 58 1 55 0;
#X connect 59 0 34 0;
#X connect 60 0 40 0;
#X connect 61 0 46 0;
#X connect 62 0 52 0;
#X connect 63 0 58 0;
#X coords 0 -1 1 1 100 125 1 100 100;
