#N canvas 514 148 787 504 10;
#X obj 416 113 +;
#X obj 449 112 +;
#X obj 433 138 +;
#X obj 432 159 / 4;
#X floatatom 434 181 5 0 0 0 - - -, f 5;
#X obj 544 165 f;
#X obj 590 168 + 1;
#X obj 627 112 tgl 15 0 empty empty empty 17 7 0 10 -262144 -1 -1 0
1;
#X obj 551 134 metro 900000;
#X obj 372 83 inlet;
#X obj 495 89 inlet;
#X obj 603 88 inlet;
#X obj 455 81 inlet;
#X obj 415 83 inlet;
#X obj 436 404 tabwrite \$0-resistorGraph;
#X obj 553 89 inlet;
#X obj 572 225 mod 96;
#N canvas 0 22 450 278 (subpatch) 0;
#X array \$0-resistorGraph 96 float 1;
#A 0 0 0 0 0 0 0 0 0 0 0 0 0 0 0 0 0 0 0 0 0 0 0 0 0 0 0 0 0 0 0 0
0 0 0 0 0 0 0 0 0 0 0 0 0 0 0 0 0 0 0 0 0 0 0 0 0 0 0 0 0 0 0 0 0 0
0 0 0 0 0 0 0 0 0 0 0 0 0 0 0 0 0 0 0 0 0 0 0 0 0 0 0 0 0 0 0;
#X coords 0 1.1 96 -0.1 200 140 1 0 0;
#X restore 105 135 graph;
#X msg 507 144 0;
#X obj 690 159 tgl 15 0 empty empty empty 17 7 0 10 -262144 -1 -1 0
1;
#X obj 682 216 f;
#X obj 718 219 + 1;
#X obj 684 251 <= 96;
#X obj 677 338 t b;
#X msg 647 373 0;
#X obj 691 373 f;
#X obj 723 373 + 1;
#X obj 677 274 route 0 1;
#X obj 616 318 s \$0-wipe-reset;
#X obj 691 96 r \$0-wipe-reset;
#X obj 657 295 t b;
#X msg 649 189 0;
#X msg 739 334 0;
#X msg 706 132 0;
#X obj 688 188 metro 0.01;
#X obj 653 86 inlet;
#X obj 487 112 r \$0-wipe-reset;
#X obj 491 214 moses 0.5;
#X obj 539 238 t b;
#X obj 490 193 == 97;
#X connect 0 0 2 0;
#X connect 1 0 2 1;
#X connect 2 0 3 0;
#X connect 3 0 4 0;
#X connect 4 0 14 0;
#X connect 5 0 6 0;
#X connect 5 0 16 0;
#X connect 5 0 39 0;
#X connect 6 0 5 1;
#X connect 8 0 5 0;
#X connect 9 0 0 0;
#X connect 10 0 1 1;
#X connect 11 0 7 0;
#X connect 11 0 8 0;
#X connect 12 0 1 0;
#X connect 13 0 0 1;
#X connect 15 0 8 1;
#X connect 16 0 14 1;
#X connect 18 0 5 0;
#X connect 19 0 34 0;
#X connect 20 0 21 0;
#X connect 20 0 22 0;
#X connect 21 0 20 1;
#X connect 22 0 27 0;
#X connect 23 0 24 0;
#X connect 23 0 25 0;
#X connect 24 0 14 0;
#X connect 25 0 26 0;
#X connect 25 0 14 1;
#X connect 26 0 25 1;
#X connect 27 0 30 0;
#X connect 27 1 23 0;
#X connect 29 0 31 0;
#X connect 29 0 32 0;
#X connect 29 0 33 0;
#X connect 30 0 28 0;
#X connect 31 0 20 0;
#X connect 32 0 25 0;
#X connect 33 0 19 0;
#X connect 34 0 20 0;
#X connect 35 0 19 0;
#X connect 36 0 18 0;
#X connect 37 1 38 0;
#X connect 38 0 18 0;
#X connect 39 0 37 0;
#X coords 0 -1 1 1 210 180 1 100 100;
