#N canvas 388 189 662 659 10;
#X obj 238 514 outlet;
#X obj 236 492 pack f f f f;
#X obj 98 66 inlet;
#X obj 340 73 inlet;
#X obj 198 72 inlet;
#X obj 266 72 inlet;
#X obj 117 140 pow;
#X msg 131 116 -1;
#X obj 128 92 loadbang;
#X obj 126 207 osc~;
#X obj 123 162 pack 0 50;
#X obj 128 229 snapshot~;
#X obj 34 170 metro 250;
#X obj 66 148 tgl 15 0 empty empty empty 17 7 0 10 -262144 -1 -1 1
1;
#X obj 32 128 loadbang;
#X msg 35 147 1;
#X obj 211 295 *;
#X obj 233 101 -;
#X obj 223 319 +;
#X obj 232 429 +;
#X obj 260 433 +;
#X obj 287 432 +;
#X obj 321 434 +;
#X obj 394 84 inlet;
#X obj 319 351 random 1000;
#X obj 395 351 random 1000;
#X obj 471 351 random 1000;
#X floatatom 193 231 5 0 0 0 - - -, f 5;
#X obj 124 184 line;
#X floatatom 351 488 5 0 0 0 - - -, f 5;
#X floatatom 302 466 5 0 0 0 - - -, f 5;
#X floatatom 155 477 5 0 0 0 - - -, f 5;
#X floatatom 220 466 5 0 0 0 - - -, f 5;
#X obj 154 251 + 1;
#X obj 176 271 / 2;
#X obj 243 351 random 1000;
#X obj 245 373 / 100000;
#X obj 321 372 / 100000;
#X obj 397 373 / 100000;
#X obj 474 373 / 100000;
#X obj 413 123 tgl 15 0 empty empty empty 17 7 0 10 -262144 -1 -1 0
1;
#X obj 480 87 inlet;
#X msg 482 129 0;
#X obj 347 202 metro 250;
#X connect 1 0 0 0;
#X connect 2 0 6 0;
#X connect 3 0 43 1;
#X connect 4 0 17 0;
#X connect 5 0 17 1;
#X connect 5 0 18 1;
#X connect 6 0 10 0;
#X connect 7 0 6 1;
#X connect 8 0 7 0;
#X connect 9 0 11 0;
#X connect 10 0 28 0;
#X connect 11 0 27 0;
#X connect 11 0 33 0;
#X connect 12 0 11 0;
#X connect 14 0 15 0;
#X connect 15 0 13 0;
#X connect 15 0 12 0;
#X connect 16 0 18 0;
#X connect 17 0 16 1;
#X connect 18 0 19 0;
#X connect 18 0 20 0;
#X connect 18 0 21 0;
#X connect 18 0 22 0;
#X connect 19 0 31 0;
#X connect 19 0 1 0;
#X connect 20 0 1 1;
#X connect 20 0 32 0;
#X connect 21 0 1 2;
#X connect 21 0 30 0;
#X connect 22 0 1 3;
#X connect 22 0 29 0;
#X connect 23 0 40 0;
#X connect 23 0 43 0;
#X connect 24 0 37 0;
#X connect 25 0 38 0;
#X connect 26 0 39 0;
#X connect 28 0 9 0;
#X connect 33 0 34 0;
#X connect 34 0 16 0;
#X connect 35 0 36 0;
#X connect 36 0 19 1;
#X connect 37 0 20 1;
#X connect 38 0 21 1;
#X connect 39 0 22 1;
#X connect 41 0 42 0;
#X connect 42 0 9 1;
#X connect 43 0 24 0;
#X connect 43 0 25 0;
#X connect 43 0 26 0;
#X connect 43 0 35 0;
