#N canvas 1 23 1680 1001 10;
#X obj 35 1 spigot 0;
#X obj 227 184 tgl 20 0 empty empty empty 0 -6 0 8 -258699 -1 -1 1
1;
#X obj 293 -7 spigot 0;
#X obj 452 181 tgl 20 0 empty empty empty 0 -6 0 8 -258699 -1 -1 1
1;
#X obj 568 -21 spigot 0;
#X obj 692 181 tgl 20 0 empty empty empty 0 -6 0 8 -258699 -1 -1 1
1;
#X obj 878 -19 spigot 0;
#X obj 917 180 tgl 20 0 empty empty empty 0 -6 0 8 -258699 -1 -1 1
1;
#X obj 583 185 pduino/arduino 3;
#X obj 814 182 pduino/arduino 4;
#X obj 1135 -9 spigot 0;
#X obj 1155 181 tgl 20 0 empty empty empty 0 -6 0 8 -258699 -1 -1 1
1;
#X obj 1413 -6 spigot 0;
#X obj 1384 178 tgl 20 0 empty empty empty 0 -6 0 8 -258699 -1 -1 1
1;
#X obj 1049 183 pduino/arduino 5;
#X obj 121 186 pduino/arduino 1;
#X obj 350 182 pduino/arduino 2;
#X obj 1282 181 pduino/arduino 6;
#X obj -7 157 s speedlimitrate;
#X obj 117 209 dataGatherer;
#X obj 49 22 r speedlimitrate;
#X obj 686 128 tgl 15 0 empty empty empty 17 7 0 10 -262144 -1 -1 1
1;
#X obj 675 80 s triggergraph;
#X obj 126 58 r triggergraph;
#X obj 526 71 s triggergraphrate;
#X obj 73 41 r triggergraphrate;
#X obj 350 210 dataGatherer;
#X obj 301 23 r speedlimitrate;
#X obj 376 57 r triggergraph;
#X obj 334 40 r triggergraphrate;
#X obj 582 209 dataGatherer;
#X obj 576 8 r speedlimitrate;
#X obj 668 42 r triggergraph;
#X obj 622 25 r triggergraphrate;
#X obj 815 206 dataGatherer;
#X obj 895 8 r speedlimitrate;
#X obj 950 42 r triggergraph;
#X obj 914 25 r triggergraphrate;
#X obj 1047 206 dataGatherer;
#X obj 1144 16 r speedlimitrate;
#X obj 1224 50 r triggergraph;
#X obj 1170 33 r triggergraphrate;
#X obj 1282 204 dataGatherer;
#X obj 1438 22 r speedlimitrate;
#X obj 1493 56 r triggergraph;
#X obj 1457 39 r triggergraphrate;
#X obj 174 75 r graphreset;
#X obj 425 74 r graphreset;
#X obj 710 59 r graphreset;
#X obj 1015 59 r graphreset;
#X obj 1277 67 r graphreset;
#X obj 1550 73 r graphreset;
#X obj 777 120 bng 15 250 50 0 empty empty empty 17 7 0 10 -262144
-1 -1;
#X obj 780 75 s graphreset;
#X obj 885 131 tgl 15 0 empty empty empty 17 7 0 10 -262144 -1 -1 1
1;
#X obj 139 -1 r arduinistates;
#X obj 386 -4 r arduinistates;
#X obj 659 -19 r arduinistates;
#X obj 971 -21 r arduinistates;
#X obj 1228 -9 r arduinistates;
#X obj 1501 -8 r arduinistates;
#X obj 876 71 s arduinistates;
#X obj 31 830 route list;
#X obj 29 853 route 1k 10k;
#X obj 310 830 route list;
#X obj 308 853 route 1k 10k;
#X obj 589 830 route list;
#X obj 587 853 route 1k 10k;
#X obj 867 830 route list;
#X obj 866 853 route 1k 10k;
#X obj 1146 830 route list;
#X obj 1144 853 route 1k 10k;
#X obj 1425 830 route list;
#X obj 1423 853 route 1k 10k;
#X obj 63 895 s ard1-10k;
#X obj 29 874 s ard1-1k;
#X obj 307 875 s ard2-1k;
#X obj 339 895 s ard2-10k;
#X obj 586 874 s ard3-1k;
#X obj 865 876 s ard4-1k;
#X obj 1145 875 s ard5-1k;
#X obj 618 895 s ard3-10k;
#X obj 905 898 s ard4-10k;
#X obj 1179 896 s ard5-10k;
#X obj 1422 874 s ard6-1k;
#X obj 1089 1140 r ard1-1k;
#X obj 1103 1158 r ard2-1k;
#X obj 1116 1176 r ard3-1k;
#X obj 1130 1194 r ard4-1k;
#X obj 1143 1212 r ard5-1k;
#X obj 1157 1230 r ard6-1k;
#X obj 1468 1122 r ard1-10k;
#X obj 1482 1140 r ard2-10k;
#X obj 1495 1158 r ard3-10k;
#X obj 1509 1176 r ard4-10k;
#X obj 448 2728 bng 15 250 50 0 empty empty empty 17 7 0 10 -262144
-1 -1;
#X obj 450 2747 s resetsim;
#X obj 1460 896 s ard6-10k;
#X obj 1547 1212 r ard6-10k;
#X obj 1528 1194 r ard5-10k;
#X obj 43 2865 s startsim;
#X obj 335 2781 bng 15 250 50 0 empty empty empty 17 7 0 10 -262144
-1 -1;
#X floatatom 854 2466 5 0 0 0 - - -, f 5;
#X floatatom 1255 2457 5 0 0 0 - - -, f 5;
#X obj 131 3008 s 1k-simtime;
#X obj 228 2876 s 10k-simtime;
#X obj 133 2942 s 1k-simtop;
#X obj 225 2938 s 10k-simtop;
#X obj 226 3006 s 10k-simbot;
#X obj 140 2877 s 1k-simbot;
#X obj 69 2598 r 1k-simtime;
#X obj 82 2615 r 1k-simtop;
#X obj 96 2632 r 1k-simbot;
#X obj 66 2706 simulateValues;
#X msg 121 2679 1;
#X obj 149 2685 r resetsim;
#X obj 123 2655 r startsim;
#X obj 220 2711 simulateValues;
#X msg 275 2684 1;
#X obj 303 2690 r resetsim;
#X obj 277 2660 r startsim;
#X obj 224 2603 r 10k-simtime;
#X obj 236 2620 r 10k-simtop;
#X obj 250 2637 r 10k-simbot;
#X msg 135 2920 0.9;
#X msg 139 2857 0.5;
#X msg 228 2918 0.8;
#X msg 227 2982 0.6;
#X msg 558 2956 250;
#X msg 563 2883 10000;
#X msg 572 2817 500;
#X obj 573 2840 s energycountertime;
#X obj 562 2904 s energycounterclipupper;
#X obj 559 2976 s energycountercliplower;
#X msg 431 2915 0.8;
#X msg 433 2849 0.63;
#X msg 321 2849 0.44;
#X obj 432 2937 s 1k-chargerupper;
#X obj 433 2870 s 1k-chargerlower;
#X obj 319 2873 s 10k-chargerlower;
#X obj 314 2940 s 10k-chargerupper;
#X msg 314 2919 0.65;
#X msg 229 2851 200;
#X msg 134 2984 200;
#X obj 44 2843 delay 13;
#X obj 562 2860 delay 1;
#X obj 564 2931 delay 2;
#X obj 435 2828 delay 3;
#X obj 434 2893 delay 4;
#X obj 320 2825 delay 5;
#X obj 315 2895 delay 6;
#X obj 230 2957 delay 7;
#X obj 229 2897 delay 8;
#X obj 230 2830 delay 9;
#X obj 141 2836 delay 10;
#X obj 138 2898 delay 11;
#X obj 138 2961 delay 12;
#X obj 150 2331 s startenergycounter;
#X obj 1466 1247 inputAverager;
#X obj 1087 1265 inputAverager;
#X obj 429 2277 bng 15 250 50 0 empty empty empty 17 7 0 10 -262144
-1 -1;
#X msg 516 2466 250;
#X msg 521 2393 10000;
#X msg 530 2327 500;
#X obj 531 2350 s energycountertime;
#X obj 520 2414 s energycounterclipupper;
#X obj 517 2486 s energycountercliplower;
#X obj 520 2370 delay 1;
#X obj 522 2441 delay 2;
#X obj 393 2338 delay 3;
#X obj 392 2403 delay 4;
#X obj 278 2335 delay 5;
#X obj 273 2405 delay 6;
#X obj 144 2439 s resetenergycounter;
#X obj 144 2405 bng 15 250 50 0 empty empty empty 17 7 0 10 -262144
-1 -1;
#X obj 901 2392 r 1k-chargeroffset;
#X obj 1300 2381 r 10k-chargeroffset;
#X obj 1293 2364 r 10k-chargerratio;
#X obj 892 2375 r 1k-chargerratio;
#X obj 391 2380 s 1k-chargeroffset;
#X obj 277 2383 s 10k-chargeroffset;
#X obj 391 2447 s 1k-chargerratio;
#X obj 272 2450 s 10k-chargerratio;
#X msg 390 2359 10;
#X msg 279 2359 10;
#X msg 389 2425 -25;
#X msg 272 2429 -91.67;
#X obj 832 2443 chargerBody;
#X obj 1228 2432 chargerBody;
#X obj 950 2426 r resetsim;
#X obj 1014 2426 r resetenergycounter;
#X obj 913 2409 r startsim;
#X obj 977 2409 r startenergycounter;
#X obj 1348 2415 r resetsim;
#X obj 1412 2415 r resetenergycounter;
#X obj 1312 2398 r startsim;
#X obj 1376 2398 r startenergycounter;
#X obj 52 924 r ard1-1k;
#X obj 81 941 r ard1-10k;
#X obj 32 973 dataUnpacker;
#X obj 343 971 dataUnpacker;
#X obj 602 974 dataUnpacker;
#X obj 887 983 dataUnpacker;
#X obj 1137 995 dataUnpacker;
#X obj 1459 984 dataUnpacker;
#X obj 353 931 r ard2-1k;
#X obj 383 948 r ard2-10k;
#X obj 610 936 r ard3-1k;
#X obj 639 953 r ard3-10k;
#X obj 912 943 r ard4-1k;
#X obj 941 960 r ard4-10k;
#X obj 1169 937 r ard5-1k;
#X obj 1198 954 r ard5-10k;
#X obj 1471 944 r ard6-1k;
#X obj 1500 961 r ard6-10k;
#X obj 187 2293 bng 15 250 50 0 empty empty empty 17 7 0 10 -262144
-1 -1;
#X obj 1087 1290 s 1k-average;
#X obj 1471 1275 s 10k-average;
#X obj 844 2492 s 1k-energylevel;
#X obj 1239 2476 s 10k-energylevel;
#N canvas 135 111 1337 666 ard1-synth 0;
#X obj 439 34 inlet;
#X obj 487 32 inlet;
#X obj 623 44 inlet;
#X obj 669 42 inlet;
#X obj 723 27 inlet;
#X obj 784 27 inlet;
#X obj 907 22 inlet;
#X obj 958 26 inlet;
#X obj 772 620 outlet~;
#X obj 613 486 osc~;
#X obj 787 544 *~ 0.166667;
#X floatatom 462 295 5 0 0 0 - - -, f 5;
#X obj 678 524 monoDelay;
#X obj 739 359 *;
#X obj 366 122 r 1k-average;
#X obj 842 316 *;
#X obj 412 240 line;
#X obj 832 270 line;
#X obj 866 293 line;
#X obj 512 354 +;
#X obj 549 248 tgl 15 0 empty empty empty 17 7 0 10 -262144 -1 -1 1
1;
#X obj 550 268 metro 25000;
#X floatatom 873 317 10 0 0 0 - - -, f 10;
#X obj 416 293 * 3500;
#X obj 922 145 -;
#X floatatom 977 189 5 0 0 0 - - -, f 5;
#X floatatom 261 106 10 0 0 0 - - -, f 10;
#X obj 927 124 pipe 5000;
#X obj 925 165 abs;
#X obj 849 390 spigot;
#X obj 933 211 route 0 1;
#X msg 890 343 0;
#X msg 883 365 1;
#X obj 1033 416 spigot;
#X msg 1065 346 0;
#X msg 1066 369 1;
#X floatatom 882 416 5 0 0 0 - - -, f 5;
#X msg 1004 347 0.166667;
#X obj 1012 372 -;
#X obj 1030 242 t b;
#X obj 1018 281 / 10000;
#X floatatom 1033 438 5 0 0 0 - - -, f 5;
#X obj 1031 326 line;
#X obj 1031 303 pack 0 12000;
#X obj 854 515 line;
#X obj 521 309 random 125;
#X obj 521 331 - 62.5;
#X obj 549 205 loadbang;
#X msg 549 227 1;
#X obj 592 465 line;
#X obj 563 417 pack 0 1000;
#X obj 620 325 random 1000;
#X obj 621 346 - 500;
#X obj 624 370 + 1000;
#X msg 583 344 1000;
#X obj 611 393 +;
#X floatatom 643 392 5 0 0 0 - - -, f 5;
#X obj 854 492 pack 0 8000;
#X obj 1017 393 abs;
#X obj 153 123 hsl 100 15 1 100000 0 0 empty empty empty -2 -8 0 10
-262144 -1 -1 6100 1;
#X floatatom 261 124 10 0 0 0 - - -, f 10;
#X text 113 122 Delay;
#X text 107 162 Volume;
#X obj 153 163 hsl 100 15 0 1 0 0 empty empty empty -2 -8 0 10 -262144
-1 -1 7100 1;
#X floatatom 261 164 10 0 0 0 - - -, f 10;
#X obj 468 72 +;
#X obj 470 93 / 2;
#X obj 701 156 -;
#X msg 697 137 1;
#X obj 701 115 t b;
#X obj 702 175 / 2;
#X obj 686 196 +;
#X obj 412 220 pack 0 16250;
#X obj 654 76 +;
#X obj 662 105 / 2;
#X obj 411 178 +;
#X obj 411 200 / 2;
#X obj 943 58 +;
#X obj 756 55 +;
#X obj 857 71 +;
#X obj 859 95 / 4;
#X obj 780 596 *~ 0;
#X obj 190 263 s \$0-ard1volume;
#X obj 798 576 r \$0-ard1volume;
#X obj 254 181 s \$0-ard1delay;
#X obj 714 453 r \$0-ard1delay;
#X obj 866 270 pack 0 10000;
#X obj 832 247 pack 0 20000;
#X floatatom 878 537 5 0 0 0 - - -, f 5;
#X obj 153 143 hsl 100 15 0 0.15 0 0 empty empty empty -2 -8 0 10 -262144
-1 -1 400 1;
#X floatatom 261 144 10 0 0 0 - - -, f 10;
#X text 107 142 V-Rate;
#X obj 297 246 s \$0-ard1vrate;
#X obj 1039 170 r \$0-ard1vrate;
#X obj 925 188 < 0.016;
#X obj 1017 263 random 4000;
#X obj 485 182 * 1.625;
#X obj 472 121 r scaleFactor;
#X obj 610 248 * 2.5;
#X obj 609 227 r scaleFactor;
#X obj 816 197 r scaleFactor;
#X obj 817 218 * 2;
#X obj 926 240 r scaleFactor;
#X obj 1102 257 r scaleFactor;
#X obj 1103 278 * 1.2;
#X obj 976 83 r scaleFactor;
#X obj 977 104 * 0.5;
#X obj 959 461 r scaleFactor;
#X obj 960 482 * 0.8;
#X obj 410 268 clip 0.2 1000;
#X obj 849 457 clip 0.005 0.166667;
#X connect 0 0 65 0;
#X connect 1 0 65 1;
#X connect 2 0 73 0;
#X connect 3 0 73 1;
#X connect 4 0 13 0;
#X connect 4 0 78 0;
#X connect 5 0 13 1;
#X connect 5 0 78 1;
#X connect 6 0 24 0;
#X connect 6 0 77 0;
#X connect 6 0 86 0;
#X connect 7 0 77 1;
#X connect 9 0 12 0;
#X connect 10 0 81 0;
#X connect 12 0 10 0;
#X connect 13 0 12 3;
#X connect 14 0 75 0;
#X connect 15 0 22 0;
#X connect 15 0 29 0;
#X connect 16 0 109 0;
#X connect 17 0 15 0;
#X connect 18 0 15 1;
#X connect 19 0 50 0;
#X connect 20 0 21 0;
#X connect 21 0 45 0;
#X connect 21 0 51 0;
#X connect 21 0 54 0;
#X connect 23 0 11 0;
#X connect 23 0 19 0;
#X connect 24 0 28 0;
#X connect 27 0 24 1;
#X connect 28 0 26 0;
#X connect 28 0 94 0;
#X connect 29 0 36 0;
#X connect 29 0 110 0;
#X connect 30 0 32 0;
#X connect 30 0 34 0;
#X connect 30 1 31 0;
#X connect 30 1 35 0;
#X connect 30 1 39 0;
#X connect 31 0 29 1;
#X connect 32 0 29 1;
#X connect 33 0 41 0;
#X connect 33 0 110 0;
#X connect 34 0 33 1;
#X connect 35 0 33 1;
#X connect 37 0 38 0;
#X connect 38 0 58 0;
#X connect 39 0 37 0;
#X connect 39 0 95 0;
#X connect 40 0 43 0;
#X connect 42 0 38 1;
#X connect 43 0 42 0;
#X connect 44 0 10 1;
#X connect 44 0 88 0;
#X connect 45 0 46 0;
#X connect 46 0 19 1;
#X connect 47 0 48 0;
#X connect 48 0 20 0;
#X connect 49 0 9 0;
#X connect 50 0 49 0;
#X connect 51 0 52 0;
#X connect 52 0 53 0;
#X connect 53 0 55 1;
#X connect 54 0 55 0;
#X connect 55 0 50 1;
#X connect 55 0 56 0;
#X connect 57 0 44 0;
#X connect 58 0 33 0;
#X connect 59 0 60 0;
#X connect 59 0 84 0;
#X connect 63 0 64 0;
#X connect 63 0 82 0;
#X connect 65 0 66 0;
#X connect 66 0 75 1;
#X connect 67 0 70 0;
#X connect 68 0 67 0;
#X connect 69 0 68 0;
#X connect 70 0 71 1;
#X connect 71 0 12 1;
#X connect 72 0 16 0;
#X connect 73 0 74 1;
#X connect 74 0 71 0;
#X connect 74 0 67 1;
#X connect 75 0 76 0;
#X connect 76 0 72 0;
#X connect 77 0 79 1;
#X connect 78 0 79 0;
#X connect 79 0 80 0;
#X connect 80 0 27 0;
#X connect 80 0 87 0;
#X connect 81 0 8 0;
#X connect 83 0 81 1;
#X connect 85 0 12 2;
#X connect 86 0 18 0;
#X connect 87 0 17 0;
#X connect 89 0 90 0;
#X connect 89 0 92 0;
#X connect 93 0 94 1;
#X connect 94 0 25 0;
#X connect 94 0 30 0;
#X connect 95 0 40 0;
#X connect 96 0 72 1;
#X connect 97 0 96 0;
#X connect 98 0 21 1;
#X connect 99 0 98 0;
#X connect 100 0 101 0;
#X connect 101 0 87 1;
#X connect 102 0 86 1;
#X connect 103 0 104 0;
#X connect 104 0 43 1;
#X connect 105 0 106 0;
#X connect 106 0 27 1;
#X connect 107 0 108 0;
#X connect 108 0 57 1;
#X connect 109 0 23 0;
#X connect 110 0 57 0;
#X coords 0 -1 1 1 230 85 1 100 100;
#X restore 104 611 pd ard1-synth;
#N canvas 59 82 1289 852 ard2-synth 0;
#X obj 493 31 inlet;
#X obj 455 31 inlet;
#X obj 569 31 inlet;
#X obj 531 31 inlet;
#X obj 812 35 inlet;
#X obj 774 35 inlet;
#X obj 1048 31 inlet;
#X obj 1010 31 inlet;
#X obj 800 820 outlet~;
#X obj 800 758 *~ 0.166667;
#X floatatom 520 214 5 0 0 0 - - -, f 5;
#X obj 472 213 * 2000;
#X obj 395 104 r 1k-average;
#X obj 469 157 /;
#X obj 483 135 clip 0.5 1;
#X obj 795 665 *~;
#X obj 852 584 bp~ 100 10;
#X obj 479 305 osc~;
#X obj 817 558 noise~;
#X obj 838 265 osc~;
#X obj 852 334 snapshot~;
#X obj 890 268 tgl 15 0 empty empty empty 17 7 0 10 -262144 -1 -1 1
1;
#X obj 890 298 metro 100;
#X obj 1043 314 sel 0 1;
#X msg 1035 359 -1;
#X msg 1064 359 1;
#X obj 1041 382 +;
#X obj 1011 382 f;
#X obj 476 272 line~;
#X obj 478 251 pack 0 25000;
#X obj 733 122 r 10k-average;
#X obj 806 191 -;
#X floatatom 832 194 10 0 0 0 - - -, f 10;
#X obj 812 214 abs;
#X obj 848 440 line;
#X obj 848 418 pack 0 10000;
#X obj 783 398 +;
#X floatatom 785 425 5 0 0 0 - - -, f 5;
#X msg 887 243 1;
#X obj 885 220 loadbang;
#X obj 1121 342 bng 15 250 50 0 empty empty empty 17 7 0 10 -262144
-1 -1;
#X obj 1017 343 bng 15 250 50 0 empty empty empty 17 7 0 10 -262144
-1 -1;
#X obj 1025 126 +;
#X obj 1024 148 / 2;
#X obj 1034 284 <;
#X obj 1057 169 t b;
#X obj 1070 216 / 1000;
#X obj 1067 190 random 1000;
#X obj 1070 242 - 0.5;
#X obj 1064 265 +;
#X obj 996 318 t b;
#X floatatom 1071 386 5 0 0 0 - - -, f 5;
#X obj 961 428 mod 40;
#X obj 929 479 + 0.05;
#X obj 925 559 line;
#X obj 926 535 pack 0 17000;
#X obj 828 354 + 1;
#X obj 827 376 * 15;
#X obj 801 728 *~ 9;
#X obj 924 509 clip 0.05 0.1;
#X obj 933 457 * 0.001;
#X text 108 118 Volume;
#X obj 154 119 hsl 100 15 0 1 0 0 empty empty empty -2 -8 0 10 -262144
-1 -1 6500 1;
#X floatatom 262 120 10 0 0 0 - - -, f 10;
#X obj 795 798 *~ 0;
#X obj 220 157 s \$0-ard2volume;
#X obj 832 784 r \$0-ard2volume;
#X floatatom 1009 436 5 0 0 0 - - -, f 5;
#X obj 1180 520 f;
#X obj 1208 519 + 1;
#X obj 1242 542 == 1000;
#X obj 1243 563 moses 0.5;
#X obj 1291 587 t b;
#X msg 1237 521 0;
#X obj 1147 550 mod 2;
#X obj 1145 582 route 0 1;
#X obj 1170 691 pack 0 500;
#X obj 1095 562 hradio 15 1 0 2 empty empty empty 0 -8 0 10 -262144
-1 -1 0;
#X obj 1154 467 tgl 15 0 empty empty empty 17 7 0 10 -262144 -1 -1
1 1;
#X obj 1019 689 pack 0.166667 500;
#X obj 1104 720 line;
#X obj 1154 426 loadbang;
#X msg 1154 446 1;
#X obj 1246 429 /;
#X floatatom 1298 464 10 0 0 0 - - -, f 10;
#X floatatom 1155 740 5 0 0 0 - - -, f 5;
#X obj 1263 394 r 1k-average;
#X obj 1226 672 + 10000;
#X obj 1230 652 random 10000;
#X obj 1120 641 random 20000;
#X obj 1116 661 + 20000;
#X obj 566 71 +;
#X obj 613 92 +;
#X obj 613 114 / 3;
#X obj 1027 618 random 8;
#X obj 1027 662 / 54;
#X obj 1027 640 + 1;
#X obj 1176 493 metro 45000;
#X obj 1238 465 * 45000;
#X floatatom 1071 664 5 0 0 0 - - -, f 5;
#X obj 590 191 * 2.5;
#X obj 589 170 r scaleFactor;
#X obj 897 371 r scaleFactor;
#X obj 1009 490 r scaleFactor;
#X obj 1010 511 * 1.7;
#X obj 1225 608 r scaleFactor;
#X obj 1182 614 * 2;
#X obj 1290 434 * 4.5;
#X obj 1291 412 r scaleFactor;
#X obj 452 185 clip 0.05 1000;
#X obj 775 238 clip 0.001 1000;
#X connect 0 0 91 0;
#X connect 1 0 14 0;
#X connect 2 0 92 1;
#X connect 3 0 91 1;
#X connect 4 0 36 0;
#X connect 5 0 31 1;
#X connect 6 0 42 1;
#X connect 7 0 42 0;
#X connect 9 0 64 0;
#X connect 11 0 10 0;
#X connect 11 0 29 0;
#X connect 12 0 13 0;
#X connect 13 0 109 0;
#X connect 14 0 13 1;
#X connect 15 0 58 0;
#X connect 16 0 15 1;
#X connect 17 0 15 0;
#X connect 18 0 16 0;
#X connect 19 0 20 0;
#X connect 20 0 56 0;
#X connect 21 0 22 0;
#X connect 22 0 20 0;
#X connect 23 0 24 0;
#X connect 23 0 41 0;
#X connect 23 1 25 0;
#X connect 23 1 40 0;
#X connect 24 0 26 1;
#X connect 25 0 26 1;
#X connect 26 0 27 1;
#X connect 27 0 26 0;
#X connect 27 0 51 0;
#X connect 27 0 52 0;
#X connect 28 0 17 0;
#X connect 29 0 28 0;
#X connect 30 0 31 0;
#X connect 31 0 32 0;
#X connect 31 0 33 0;
#X connect 33 0 110 0;
#X connect 34 0 16 1;
#X connect 35 0 34 0;
#X connect 36 0 35 0;
#X connect 36 0 37 0;
#X connect 38 0 21 0;
#X connect 39 0 38 0;
#X connect 42 0 43 0;
#X connect 43 0 44 0;
#X connect 43 0 45 0;
#X connect 43 0 49 0;
#X connect 44 0 23 0;
#X connect 44 0 50 0;
#X connect 45 0 47 0;
#X connect 46 0 48 0;
#X connect 47 0 46 0;
#X connect 48 0 49 1;
#X connect 49 0 44 1;
#X connect 50 0 27 0;
#X connect 52 0 60 0;
#X connect 52 0 67 0;
#X connect 53 0 59 0;
#X connect 54 0 16 2;
#X connect 55 0 54 0;
#X connect 56 0 57 0;
#X connect 57 0 36 1;
#X connect 58 0 9 0;
#X connect 59 0 55 0;
#X connect 60 0 53 0;
#X connect 62 0 63 0;
#X connect 62 0 65 0;
#X connect 64 0 8 0;
#X connect 66 0 64 1;
#X connect 68 0 69 0;
#X connect 68 0 70 0;
#X connect 68 0 74 0;
#X connect 69 0 68 1;
#X connect 70 0 71 0;
#X connect 71 1 72 0;
#X connect 72 0 73 0;
#X connect 73 0 68 0;
#X connect 74 0 75 0;
#X connect 74 0 77 0;
#X connect 75 0 89 0;
#X connect 75 0 94 0;
#X connect 75 1 76 0;
#X connect 75 1 88 0;
#X connect 76 0 80 0;
#X connect 78 0 97 0;
#X connect 79 0 80 0;
#X connect 80 0 9 1;
#X connect 80 0 85 0;
#X connect 81 0 82 0;
#X connect 82 0 78 0;
#X connect 83 0 98 0;
#X connect 86 0 83 1;
#X connect 87 0 76 1;
#X connect 88 0 87 0;
#X connect 89 0 90 0;
#X connect 90 0 79 1;
#X connect 91 0 92 0;
#X connect 92 0 93 0;
#X connect 93 0 83 0;
#X connect 94 0 96 0;
#X connect 95 0 79 0;
#X connect 95 0 99 0;
#X connect 96 0 95 0;
#X connect 97 0 68 0;
#X connect 98 0 84 0;
#X connect 98 0 97 1;
#X connect 100 0 29 1;
#X connect 101 0 100 0;
#X connect 102 0 35 1;
#X connect 103 0 104 0;
#X connect 104 0 55 1;
#X connect 105 0 106 0;
#X connect 105 0 88 1;
#X connect 105 0 87 1;
#X connect 106 0 89 1;
#X connect 106 0 90 1;
#X connect 107 0 98 1;
#X connect 108 0 107 0;
#X connect 109 0 11 0;
#X connect 110 0 19 0;
#X coords 0 -1 1 1 230 40 1 100 100;
#X restore 342 619 pd ard2-synth;
#N canvas 41 23 1615 988 ard3-synth 0;
#X obj 843 72 inlet;
#X obj 881 72 inlet;
#X obj 919 72 inlet;
#X obj 957 72 inlet;
#X obj 995 72 inlet;
#X obj 1033 72 inlet;
#X obj 1071 72 inlet;
#X obj 1109 72 inlet;
#X obj 1039 940 outlet~;
#X obj 1034 893 *~ 0.166667;
#X floatatom 689 302 5 0 0 0 - - -, f 5;
#X obj 653 358 line~;
#X obj 1034 834 osc~;
#X obj 1032 810 +~;
#X obj 1050 785 *~;
#X obj 948 560 noise~;
#X obj 980 582 bp~ 100 10;
#X obj 923 356 osc~;
#X obj 936 388 snapshot~;
#X obj 974 333 tgl 15 0 empty empty empty 17 7 0 10 -262144 -1 -1 1
1;
#X floatatom 953 429 5 0 0 0 - - -, f 5;
#X obj 974 352 metro 100;
#X obj 1103 387 +;
#X obj 1073 387 f;
#X floatatom 1075 414 5 0 0 0 - - -, f 5;
#X floatatom 1123 499 5 0 0 0 - - -, f 5;
#X obj 913 408 + 1.01563;
#X obj 911 430 * 200;
#X obj 1107 311 sel 0 1;
#X msg 1099 356 -1;
#X msg 1128 356 1;
#X obj 1185 339 bng 15 250 50 0 empty empty empty 17 7 0 10 -262144
-1 -1;
#X obj 1081 340 bng 15 250 50 0 empty empty empty 17 7 0 10 -262144
-1 -1;
#X obj 1089 123 +;
#X obj 1088 145 / 2;
#X obj 1098 281 <;
#X obj 1121 166 t b;
#X obj 1134 213 / 1000;
#X obj 1131 187 random 1000;
#X obj 1134 239 - 0.5;
#X obj 1110 256 +;
#X obj 1060 315 t b;
#X obj 576 196 r 1k-average;
#X obj 664 227 clip 0.5 1;
#X obj 653 336 pack 0 14000;
#X obj 1040 559 line;
#X obj 1073 444 mod 31;
#X obj 1069 496 + 0.015;
#X obj 1066 517 clip 0.015 3;
#X obj 1072 474 * 0.0995;
#X obj 1043 536 pack 0 12500;
#X obj 1082 727 clip 2000 10000;
#X obj 1070 765 line;
#X obj 1088 648 metro 3000;
#X obj 1089 627 tgl 15 0 empty empty empty 17 7 0 10 -262144 -1 -1
1 1;
#X obj 1085 676 random 8001;
#X floatatom 1133 701 5 0 0 0 - - -, f 5;
#X obj 1086 698 + 2000;
#X obj 1074 746 pack 0 500;
#X floatatom 1219 512 10 0 0 0 - - -, f 10;
#X obj 1159 509 * 10000;
#X obj 1032 135 /;
#X obj 1159 578 clip 10 20000;
#X obj 1150 603 pack 0 50;
#X obj 1150 625 line;
#X obj 650 249 /;
#X text 108 138 Volume;
#X obj 154 139 hsl 100 15 0 1 0 0 empty empty empty -2 -8 0 10 -262144
-1 -1 4400 1;
#X floatatom 262 140 10 0 0 0 - - -, f 10;
#X obj 891 267 pow;
#X obj 888 314 / 100;
#X floatatom 928 316 5 0 0 0 - - -, f 5;
#X obj 645 300 * 2500;
#X obj 1137 870 line;
#X obj 1130 823 clip 0 0.166667;
#X obj 928 492 line;
#X obj 925 468 pack 0 400;
#X obj 967 292 loadbang;
#X msg 974 313 1;
#X obj 1080 582 loadbang;
#X msg 1087 603 1;
#X obj 1193 734 metro 10000;
#X obj 1185 664 loadbang;
#X msg 1191 687 1;
#X obj 1193 711 tgl 15 0 empty empty empty 17 7 0 10 -262144 -1 -1
1 1;
#X obj 1362 530 -;
#X floatatom 1417 574 5 0 0 0 - - -, f 5;
#X floatatom 262 104 10 0 0 0 - - -, f 10;
#X obj 1365 550 abs;
#X obj 1367 608 route 0 1;
#X msg 1309 785 36;
#X msg 1349 780 54;
#X obj 1259 674 pow;
#X msg 1314 635 10000;
#X obj 1220 613 t b;
#X floatatom 1188 874 5 0 0 0 - - -, f 5;
#X obj 154 119 hsl 100 15 0 0.001 0 0 empty empty empty -2 -8 0 10
-262144 -1 -1 9900 1;
#X floatatom 262 120 10 0 0 0 - - -, f 10;
#X text 108 118 V-Rate;
#X obj 345 119 s \$0-vrate;
#X obj 1482 547 r \$0-vrate;
#X obj 1365 573 > 0.016;
#X obj 1367 509 pipe 10000;
#X obj 1139 848 pack 0 300;
#X floatatom 1274 706 10 0 0 0 - - -, f 10;
#X obj 1242 704 * 15;
#X obj 335 217 s \$0-ard3volume;
#X obj 1110 896 r \$0-ard3volume;
#X obj 731 281 r scaleFactor;
#X obj 732 302 * 1.4;
#X obj 1239 534 r scaleFactor;
#X obj 1240 555 * 2;
#X obj 1425 487 r scaleFactor;
#X msg 1343 720 8;
#X obj 1257 587 r scaleFactor;
#X obj 1236 647 f;
#X obj 1284 608 loadbang;
#X obj 1200 469 r scaleFactor;
#X obj 1037 916 *~ 0;
#X msg 1304 735 3;
#X obj 1186 777 + 1;
#X obj 1184 758 random 3;
#X obj 1186 798 / 36;
#X msg 1351 752 0.5;
#X msg 1305 761 1;
#X text 191 102 0.003;
#X connect 0 0 43 0;
#X connect 1 0 69 0;
#X connect 1 0 85 0;
#X connect 1 0 102 0;
#X connect 2 0 69 1;
#X connect 3 0 94 0;
#X connect 3 0 92 1;
#X connect 4 0 61 0;
#X connect 5 0 61 1;
#X connect 6 0 33 0;
#X connect 7 0 33 1;
#X connect 9 0 118 0;
#X connect 11 0 13 0;
#X connect 12 0 9 0;
#X connect 13 0 12 0;
#X connect 14 0 13 1;
#X connect 15 0 16 0;
#X connect 16 0 14 0;
#X connect 17 0 18 0;
#X connect 18 0 26 0;
#X connect 19 0 21 0;
#X connect 21 0 18 0;
#X connect 22 0 23 1;
#X connect 23 0 22 0;
#X connect 23 0 24 0;
#X connect 24 0 46 0;
#X connect 26 0 27 0;
#X connect 27 0 20 0;
#X connect 27 0 76 0;
#X connect 28 0 29 0;
#X connect 28 0 32 0;
#X connect 28 1 30 0;
#X connect 28 1 31 0;
#X connect 29 0 22 1;
#X connect 30 0 22 1;
#X connect 33 0 34 0;
#X connect 34 0 35 0;
#X connect 34 0 36 0;
#X connect 34 0 40 0;
#X connect 35 0 28 0;
#X connect 35 0 41 0;
#X connect 36 0 38 0;
#X connect 37 0 39 0;
#X connect 38 0 37 0;
#X connect 39 0 40 1;
#X connect 40 0 35 1;
#X connect 41 0 23 0;
#X connect 42 0 65 0;
#X connect 43 0 65 1;
#X connect 44 0 11 0;
#X connect 45 0 16 2;
#X connect 46 0 49 0;
#X connect 47 0 25 0;
#X connect 47 0 48 0;
#X connect 48 0 50 0;
#X connect 49 0 47 0;
#X connect 50 0 45 0;
#X connect 51 0 58 0;
#X connect 52 0 14 1;
#X connect 53 0 55 0;
#X connect 54 0 53 0;
#X connect 55 0 57 0;
#X connect 57 0 56 0;
#X connect 57 0 51 0;
#X connect 58 0 52 0;
#X connect 60 0 59 0;
#X connect 60 0 62 0;
#X connect 61 0 60 0;
#X connect 62 0 63 0;
#X connect 63 0 64 0;
#X connect 64 0 53 1;
#X connect 65 0 72 0;
#X connect 67 0 68 0;
#X connect 67 0 106 0;
#X connect 69 0 70 0;
#X connect 70 0 17 0;
#X connect 70 0 71 0;
#X connect 72 0 10 0;
#X connect 72 0 44 0;
#X connect 73 0 9 1;
#X connect 73 0 95 0;
#X connect 74 0 103 0;
#X connect 75 0 16 1;
#X connect 76 0 75 0;
#X connect 77 0 78 0;
#X connect 78 0 19 0;
#X connect 79 0 80 0;
#X connect 80 0 54 0;
#X connect 81 0 121 0;
#X connect 82 0 83 0;
#X connect 83 0 84 0;
#X connect 84 0 81 0;
#X connect 85 0 88 0;
#X connect 88 0 87 0;
#X connect 88 0 101 0;
#X connect 89 0 119 0;
#X connect 89 0 90 0;
#X connect 89 0 124 0;
#X connect 89 1 113 0;
#X connect 89 1 91 0;
#X connect 89 1 123 0;
#X connect 90 0 122 1;
#X connect 91 0 122 1;
#X connect 92 0 105 0;
#X connect 93 0 115 1;
#X connect 94 0 115 0;
#X connect 96 0 97 0;
#X connect 96 0 99 0;
#X connect 100 0 101 1;
#X connect 101 0 86 0;
#X connect 101 0 89 0;
#X connect 102 0 85 1;
#X connect 103 0 73 0;
#X connect 105 0 81 1;
#X connect 105 0 104 0;
#X connect 107 0 118 1;
#X connect 108 0 109 0;
#X connect 109 0 44 1;
#X connect 110 0 111 0;
#X connect 111 0 62 2;
#X connect 112 0 102 1;
#X connect 113 0 121 1;
#X connect 114 0 115 1;
#X connect 115 0 92 0;
#X connect 116 0 93 0;
#X connect 117 0 60 1;
#X connect 118 0 8 0;
#X connect 119 0 121 1;
#X connect 120 0 122 0;
#X connect 121 0 120 0;
#X connect 122 0 74 0;
#X connect 123 0 120 1;
#X connect 124 0 120 1;
#X coords 0 -1 1 1 230 60 1 100 100;
#X restore 577 618 pd ard3-synth;
#N canvas 16 25 1624 972 ard4-synth 0;
#X obj 995 47 inlet;
#X obj 957 47 inlet;
#X obj 1071 47 inlet;
#X obj 1033 47 inlet;
#X obj 1147 47 inlet;
#X obj 1109 47 inlet;
#X obj 1223 47 inlet;
#X obj 1185 47 inlet;
#X obj 829 938 outlet~;
#X obj 829 883 *~ 0.166667;
#X obj 154 223 hsl 100 15 0 1 0 0 empty empty empty -2 -8 0 10 -262144
-1 -1 9900 1;
#X text 108 222 Volume;
#X floatatom 262 224 10 0 0 0 - - -, f 10;
#N canvas 251 176 1034 563 calculateLogistic 0;
#X obj 142 117 until;
#X obj 145 155 t b b;
#X floatatom 140 226 5 0 0 0 - - -, f 5;
#X floatatom 284 223 5 0 0 0 - - -, f 5;
#X obj 135 268 expr $f1 * $f2 * (1 - $f2);
#X floatatom 136 314 5 0 0 0 - - -, f 5;
#X obj 587 121 until;
#X obj 590 159 t b b;
#X floatatom 584 230 5 0 0 0 - - -, f 5;
#X floatatom 729 228 5 0 0 0 - - -, f 5;
#X obj 580 279 expr $f1 * $f2 * (1 - $f2);
#X floatatom 581 318 5 0 0 0 - - -, f 5;
#X msg 622 445 clear;
#X msg 581 375 merge 2 \$1;
#X msg 70 366 merge 1 \$1;
#X text 182 289 logistic map equation;
#X text 313 192 x;
#X text 779 196 x;
#X text 611 195 r;
#X text 173 195 r;
#X text 188 304 x_1=r*x_0*(1-x_0);
#X text 559 395 add outputs to index 2 of colletion chaos;
#X text -7 384 add outputs to index 1 of collection chaos;
#X msg 141 195 3.75;
#X msg 578 195 3.75;
#X msg 283 192 0.95;
#X msg 728 196 0.950001;
#X obj 388 501 outlet;
#X obj 421 25 inlet;
#X obj 795 28 inlet;
#X connect 0 0 1 0;
#X connect 1 0 23 0;
#X connect 1 1 3 0;
#X connect 2 0 4 0;
#X connect 3 0 4 1;
#X connect 4 0 5 0;
#X connect 4 0 3 0;
#X connect 5 0 14 0;
#X connect 6 0 7 0;
#X connect 7 0 24 0;
#X connect 7 1 9 0;
#X connect 8 0 10 0;
#X connect 9 0 10 1;
#X connect 10 0 11 0;
#X connect 10 0 9 0;
#X connect 11 0 13 0;
#X connect 12 0 27 0;
#X connect 13 0 27 0;
#X connect 14 0 27 0;
#X connect 23 0 2 0;
#X connect 24 0 8 0;
#X connect 25 0 3 0;
#X connect 26 0 9 0;
#X connect 28 0 6 0;
#X connect 28 0 0 0;
#X connect 29 0 26 0;
#X connect 29 0 25 0;
#X connect 29 0 12 0;
#X restore 373 156 pd calculateLogistic;
#X text 114 123 Steps;
#X obj 154 124 hsl 100 15 100 1000 0 0 empty empty empty -2 -8 0 10
-262144 -1 -1 9900 1;
#X floatatom 262 125 10 0 0 0 - - -, f 10;
#X obj 372 136 i;
#X obj 261 164 bng 15 250 50 0 empty empty empty 17 7 0 10 -262144
-1 -1;
#X text 198 144 Calculate;
#X text 222 164 Reset;
#X obj 261 144 bng 15 250 50 0 empty empty empty 17 7 0 10 -262144
-1 -1;
#X obj 732 552 osc~;
#X obj 750 377 metro 125;
#X obj 109 365 loadbang;
#X obj 261 184 tgl 15 0 empty empty empty 17 7 0 10 -262144 -1 -1 1
1;
#X text 234 184 Run;
#X obj 751 400 f;
#X obj 778 400 + 1;
#X obj 750 429 mod 2;
#X obj 751 449 route 0 1;
#X obj 815 418 == 1000;
#X obj 816 439 moses 0.5;
#X obj 864 463 t b;
#X msg 810 397 0;
#X obj 217 679 table ard4Scale1;
#X obj 217 696 table ard4Scale2;
#X obj 217 713 table ard4Scale3;
#X obj 217 730 table ard4Scale4;
#X obj 217 747 table ard4Scale5;
#X obj 217 764 table ard4Scale6;
#X obj 217 781 table ard4Scale7;
#N canvas 183 287 733 570 mapToScales 0;
#X msg 247 193 nth 1 \$1;
#X obj 268 312 int;
#X obj 262 476 mtof;
#X floatatom 300 476 5 0 0 0 - - -, f 5;
#X floatatom 363 237 5 0 0 0 - - -, f 5;
#X floatatom 295 283 5 0 0 0 - - -, f 5;
#X floatatom 306 455 5 0 0 0 - - -, f 5;
#X obj 272 60 f;
#X obj 297 60 + 1;
#X obj 177 102 == 1000;
#X obj 177 123 moses 0.5;
#X obj 206 143 t b;
#X msg 243 60 0;
#X obj 240 376 int;
#X obj 237 399 * 12;
#X obj 263 424 +;
#X obj 240 353 / 7;
#X obj 281 356 % 7;
#X obj 281 398 tabread ard4Scale1;
#X obj 264 17 inlet;
#X obj 269 501 outlet;
#X floatatom 328 64 5 0 0 0 - - -, f 5;
#X obj 386 16 inlet;
#X obj 226 235 cyclone/coll logistic;
#C restore;
#X msg 422 270 set ard4Scale1;
#X msg 422 287 set ard4Scale2;
#X msg 422 304 set ard4Scale3;
#X msg 422 321 set ard4Scale4;
#X msg 422 338 set ard4Scale5;
#X msg 422 355 set ard4Scale6;
#X msg 422 372 set ard4Scale7;
#X obj 264 454 + 60;
#X obj 485 43 inlet;
#X obj 479 70 route 0 1 2 3 4 5 6;
#X obj 262 279 * 24;
#X obj 318 16 inlet;
#X connect 0 0 23 0;
#X connect 1 0 16 0;
#X connect 1 0 17 0;
#X connect 2 0 3 0;
#X connect 2 0 20 0;
#X connect 7 0 8 0;
#X connect 7 0 9 0;
#X connect 7 0 0 0;
#X connect 7 0 21 0;
#X connect 8 0 7 1;
#X connect 9 0 10 0;
#X connect 10 1 11 0;
#X connect 11 0 12 0;
#X connect 12 0 7 0;
#X connect 13 0 14 0;
#X connect 14 0 15 0;
#X connect 15 0 31 0;
#X connect 16 0 13 0;
#X connect 17 0 18 0;
#X connect 18 0 15 1;
#X connect 19 0 7 0;
#X connect 22 0 12 0;
#X connect 23 0 4 0;
#X connect 23 0 34 0;
#X connect 24 0 18 0;
#X connect 25 0 18 0;
#X connect 26 0 18 0;
#X connect 27 0 18 0;
#X connect 28 0 18 0;
#X connect 29 0 18 0;
#X connect 30 0 18 0;
#X connect 31 0 6 0;
#X connect 31 0 2 0;
#X connect 32 0 33 0;
#X connect 33 0 24 0;
#X connect 33 1 25 0;
#X connect 33 2 26 0;
#X connect 33 3 27 0;
#X connect 33 4 28 0;
#X connect 33 5 29 0;
#X connect 33 6 30 0;
#X connect 34 0 1 0;
#X connect 34 0 5 0;
#X connect 35 0 9 1;
#X restore 670 529 pd mapToScales;
#N canvas 181 392 733 570 mapToScales 0;
#X obj 268 312 int;
#X obj 262 476 mtof;
#X floatatom 300 476 5 0 0 0 - - -, f 5;
#X floatatom 365 238 5 0 0 0 - - -, f 5;
#X floatatom 295 283 5 0 0 0 - - -, f 5;
#X floatatom 306 455 5 0 0 0 - - -, f 5;
#X obj 272 60 f;
#X obj 297 60 + 1;
#X obj 177 102 == 1000;
#X obj 177 123 moses 0.5;
#X obj 206 143 t b;
#X msg 243 60 0;
#X obj 240 376 int;
#X obj 237 399 * 12;
#X obj 263 424 +;
#X obj 240 353 / 7;
#X obj 281 356 % 7;
#X obj 281 398 tabread ard4Scale1;
#X obj 264 17 inlet;
#X obj 269 501 outlet;
#X msg 247 193 nth 2 \$1;
#X obj 403 17 inlet;
#X obj 226 235 cyclone/coll logistic;
#C restore;
#X msg 422 270 set ard4Scale1;
#X msg 422 287 set ard4Scale2;
#X msg 422 304 set ard4Scale3;
#X msg 422 321 set ard4Scale4;
#X msg 422 338 set ard4Scale5;
#X msg 422 355 set ard4Scale6;
#X msg 422 372 set ard4Scale7;
#X obj 264 454 + 60;
#X floatatom 331 63 5 0 0 0 - - -, f 5;
#X obj 485 43 inlet;
#X obj 479 70 route 0 1 2 3 4 5 6;
#X obj 262 278 * 24;
#X obj 337 25 inlet;
#X obj 489 463 print scale;
#X connect 0 0 15 0;
#X connect 0 0 16 0;
#X connect 1 0 2 0;
#X connect 1 0 19 0;
#X connect 6 0 7 0;
#X connect 6 0 8 0;
#X connect 6 0 20 0;
#X connect 6 0 31 0;
#X connect 7 0 6 1;
#X connect 8 0 9 0;
#X connect 9 1 10 0;
#X connect 10 0 11 0;
#X connect 11 0 6 0;
#X connect 12 0 13 0;
#X connect 13 0 14 0;
#X connect 14 0 30 0;
#X connect 15 0 12 0;
#X connect 16 0 17 0;
#X connect 17 0 14 1;
#X connect 18 0 6 0;
#X connect 20 0 22 0;
#X connect 21 0 11 0;
#X connect 22 0 3 0;
#X connect 22 0 34 0;
#X connect 23 0 17 0;
#X connect 23 0 36 0;
#X connect 24 0 17 0;
#X connect 24 0 36 0;
#X connect 25 0 17 0;
#X connect 25 0 36 0;
#X connect 26 0 17 0;
#X connect 26 0 36 0;
#X connect 27 0 17 0;
#X connect 27 0 36 0;
#X connect 28 0 17 0;
#X connect 28 0 36 0;
#X connect 29 0 17 0;
#X connect 29 0 36 0;
#X connect 30 0 5 0;
#X connect 30 0 1 0;
#X connect 32 0 33 0;
#X connect 33 0 23 0;
#X connect 33 1 24 0;
#X connect 33 2 25 0;
#X connect 33 3 26 0;
#X connect 33 4 27 0;
#X connect 33 5 28 0;
#X connect 33 6 29 0;
#X connect 34 0 0 0;
#X connect 34 0 4 0;
#X connect 35 0 8 1;
#X restore 896 550 pd mapToScales;
#X obj 815 565 osc~;
#X msg 406 109 1000;
#X floatatom 849 378 5 0 0 0 - - -, f 5;
#X obj 367 176 cyclone/coll logistic;
#C restore;
#X obj 408 87 loadbang;
#X obj 836 856 +~;
#X obj 817 833 *~;
#X obj 854 831 *~;
#X obj 917 576 t b;
#X obj 1106 758 vline~;
#X obj 642 552 t b;
#X obj 817 753 vline~;
#X obj 1112 735 vlineMessagePacker;
#X msg 1103 711 1;
#X msg 1197 714 0;
#X obj 666 731 vlineMessagePacker;
#X obj 955 185 -;
#X floatatom 1013 231 5 0 0 0 - - -, f 5;
#X floatatom 262 106 10 0 0 0 - - -, f 10;
#X obj 958 205 abs;
#X obj 959 253 route 0 1;
#X obj 792 307 spigot;
#X msg 833 260 0;
#X msg 826 282 1;
#X obj 1020 449 spigot;
#X msg 1052 399 0;
#X msg 1053 422 1;
#X obj 732 573 *~ 0.5;
#X obj 816 591 *~ 0.5;
#X obj 691 201 *;
#X obj 681 155 line;
#X obj 715 178 line;
#X floatatom 722 202 5 0 0 0 - - -, f 5;
#X obj 681 132 pack 0 50000;
#X obj 970 306 t b;
#X obj 1011 399 line;
#X obj 680 112 r 1k-average;
#X obj 715 154 pack 0 8000;
#X obj 730 271 /;
#X obj 689 222 t b;
#X msg 686 245 125;
#X floatatom 763 275 5 0 0 0 - - -, f 5;
#X floatatom 1020 471 5 0 0 0 - - -, f 5;
#X obj 1011 377 pack 0 16000;
#X obj 977 164 pipe 10000;
#X obj 956 327 random 125;
#X obj 983 84 +;
#X obj 1025 83 +;
#X obj 1011 112 +;
#X obj 1013 134 / 4;
#X floatatom 1039 135 5 0 0 0 - - -, f 5;
#X obj 1138 713 f;
#X obj 1169 713 f;
#X obj 1229 711 f;
#X msg 641 704 1;
#X msg 735 707 0;
#X obj 676 706 f;
#X obj 707 706 f;
#X obj 767 704 f;
#N canvas 0 22 849 448 scaleChooser 0;
#X obj 379 254 sel 0 1 2 3 4 5 6;
#X msg 325 288 0;
#X msg 354 288 1;
#X msg 385 287 2;
#X msg 417 287 3;
#X msg 448 287 4;
#X msg 480 288 5;
#X msg 508 288 6;
#X obj 381 139 mod 7;
#X obj 414 333 outlet;
#X obj 394 39 inlet;
#X msg 431 183 1;
#X msg 481 200 0;
#X obj 388 220 spigot 0;
#X obj 474 118 tgl 15 0 empty empty empty 17 7 0 10 -262144 -1 -1 1
1;
#X obj 470 71 loadbang;
#X msg 470 93 1;
#X obj 563 32 inlet;
#X floatatom 614 109 10 0 0 0 - - -, f 10;
#X floatatom 329 201 5 0 0 0 - - -, f 5;
#X obj 387 109 * 1000;
#X obj 564 182 bng 15 250 50 0 empty empty empty 17 7 0 10 -262144
-1 -1;
#X obj 480 178 delay 1000;
#X obj 556 100 * 1e+06;
#X obj 472 143 metro 1e+06;
#X connect 0 0 1 0;
#X connect 0 1 2 0;
#X connect 0 2 3 0;
#X connect 0 3 4 0;
#X connect 0 4 5 0;
#X connect 0 5 6 0;
#X connect 0 6 7 0;
#X connect 1 0 9 0;
#X connect 2 0 9 0;
#X connect 3 0 9 0;
#X connect 4 0 9 0;
#X connect 5 0 9 0;
#X connect 6 0 9 0;
#X connect 7 0 9 0;
#X connect 8 0 13 0;
#X connect 8 0 19 0;
#X connect 10 0 20 0;
#X connect 11 0 13 1;
#X connect 12 0 13 1;
#X connect 13 0 0 0;
#X connect 14 0 24 0;
#X connect 15 0 16 0;
#X connect 16 0 14 0;
#X connect 17 0 23 0;
#X connect 20 0 8 0;
#X connect 22 0 12 0;
#X connect 23 0 18 0;
#X connect 23 0 24 1;
#X connect 24 0 11 0;
#X connect 24 0 21 0;
#X connect 24 0 22 0;
#X restore 774 503 pd scaleChooser;
#X obj 774 482 r 10k-average;
#X obj 1107 123 *;
#X floatatom 1142 135 5 0 0 0 - - -, f 5;
#X floatatom 1294 108 5 0 0 0 - - -, f 5;
#X obj 1278 368 random 50;
#X obj 1368 369 random 50;
#X floatatom 1289 425 5 0 0 0 - - -, f 5;
#X floatatom 1369 422 5 0 0 0 - - -, f 5;
#X obj 1353 466 +;
#X obj 1322 499 t b;
#X obj 1356 556 -;
#X floatatom 1351 576 5 0 0 0 - - -, f 5;
#X obj 1307 400 + 10;
#X obj 1386 400 + 10;
#X obj 971 352 + 125;
#X msg 780 678 35;
#X msg 1241 685 35;
#X msg 1155 692 20;
#X msg 1182 690 70;
#X msg 691 685 20;
#X msg 720 683 70;
#X msg 1318 528 125;
#X obj 1117 358 random 50;
#X obj 1207 359 random 50;
#X floatatom 1128 415 5 0 0 0 - - -, f 5;
#X floatatom 1208 412 5 0 0 0 - - -, f 5;
#X obj 1192 456 +;
#X obj 1161 489 t b;
#X obj 1190 544 -;
#X floatatom 1190 566 5 0 0 0 - - -, f 5;
#X obj 1146 390 + 10;
#X obj 1225 390 + 10;
#X msg 1157 518 125;
#X obj 1198 213 metro 1000;
#X msg 1198 169 1;
#X obj 1197 190 tgl 15 0 empty empty empty 17 7 0 10 -262144 -1 -1
1 1;
#X obj 1198 147 loadbang;
#X obj 1266 134 + 1;
#X floatatom 1264 176 5 0 0 0 - - -, f 5;
#X obj 1263 103 /;
#X obj 1264 154 * 2500;
#X msg 110 387 \; ard4Scale1 0 1.83484 4.97157 5.32642 6.52806 8.54337
11.3547 \; ard4Scale2 0 2.98303 3.10009 5.07003 6.05836 9.77671 10.8588
\; ard4Scale3 0 4.89845 5.69215 7.47283 8.31676 10.7124 11.4606 \;
ard4Scale4 0 2.2766 3.53517 4.30289 6.12908 9.36122 10.1387 \; ard4Scale5
0 2.93672 4.2171 6.80631 7.33154 9.09509 11.1687 \; ard4Scale6 0 1.31691
2.37063 4.87245 6.97938 9.1114 11.2425 \; ard4Scale7 0 5.18516 6.87107
7.30122 8.12868 9.39942 11.9639 \;;
#X obj 252 74 i;
#X obj 527 140 s \$0-steps;
#X obj 854 393 r \$0-steps;
#X obj 658 471 r \$0-steps;
#X obj 923 495 r \$0-steps;
#X obj 154 203 hsl 100 15 0 0.5 0 0 empty empty empty -2 -8 0 10 -262144
-1 -1 3100 1;
#X floatatom 262 204 10 0 0 0 - - -, f 10;
#X text 120 202 Rate;
#X obj 832 913 *~ 0;
#X obj 228 286 s \$0-ratesensitivity;
#X obj 1057 206 r \$0-ratesensitivity;
#X obj 338 196 s \$0-reset;
#X obj 958 228 > 0.025;
#X obj 1273 834 random 3500;
#X obj 1269 854 + 3500;
#X obj 1376 712 f;
#X obj 1404 711 + 1;
#X obj 1438 734 == 1000;
#X obj 1439 755 moses 0.5;
#X obj 1487 779 t b;
#X msg 1433 713 0;
#X obj 1343 742 mod 2;
#X obj 1341 774 route 0 1;
#X obj 1366 884 pack 0 500;
#X obj 1426 844 random 3500;
#X obj 1422 864 + 3500;
#X obj 1291 754 hradio 15 1 0 2 empty empty empty 0 -8 0 10 -262144
-1 -1 0;
#X obj 1350 659 tgl 15 0 empty empty empty 17 7 0 10 -262144 -1 -1
1 1;
#X obj 1217 877 pack 0.166667 500;
#X obj 1308 913 line;
#X obj 1372 685 metro 60000;
#X obj 1350 618 loadbang;
#X msg 1350 638 1;
#X obj 1490 422 /;
#X obj 1464 540 * 60000;
#X floatatom 1522 565 10 0 0 0 - - -, f 10;
#X obj 153 260 s \$0-ard4volume;
#X obj 949 893 r \$0-ard4volume;
#X obj 331 218 s \$0-ard4run;
#X obj 742 353 r \$0-ard4run;
#X obj 818 349 r \$0-ard4reset;
#X obj 684 492 r \$0-ard4reset;
#X obj 960 515 r \$0-ard4reset;
#X obj 1460 692 r \$0-ard4reset;
#X floatatom 1308 935 5 0 0 0 - - -, f 5;
#X obj 792 66 r scaleFactor;
#X obj 763 113 * 5;
#X obj 805 143 * 0.8;
#X obj 1058 155 r scaleFactor;
#X obj 1496 490 r scaleFactor;
#X obj 1500 515 * 6;
#X obj 1042 307 r scaleFactor;
#X obj 1049 339 * 1.6;
#X floatatom 844 306 10 0 0 0 - - -, f 10;
#X obj 787 326 clip 125 2000;
#X connect 0 0 90 1;
#X connect 0 0 60 0;
#X connect 1 0 90 0;
#X connect 2 0 91 1;
#X connect 3 0 91 0;
#X connect 3 0 81 0;
#X connect 4 0 105 1;
#X connect 4 0 179 0;
#X connect 5 0 105 0;
#X connect 5 0 179 1;
#X connect 6 0 143 1;
#X connect 7 0 143 0;
#X connect 9 0 154 0;
#X connect 10 0 12 0;
#X connect 10 0 182 0;
#X connect 13 0 47 0;
#X connect 15 0 17 1;
#X connect 15 0 146 0;
#X connect 17 0 13 0;
#X connect 17 0 147 0;
#X connect 18 0 13 1;
#X connect 18 0 157 0;
#X connect 21 0 17 0;
#X connect 22 0 71 0;
#X connect 23 0 27 0;
#X connect 24 0 145 0;
#X connect 25 0 184 0;
#X connect 27 0 28 0;
#X connect 27 0 29 0;
#X connect 27 0 31 0;
#X connect 27 0 46 0;
#X connect 28 0 27 1;
#X connect 29 0 30 0;
#X connect 30 0 42 0;
#X connect 30 1 43 0;
#X connect 31 0 32 0;
#X connect 32 1 33 0;
#X connect 33 0 34 0;
#X connect 34 0 27 0;
#X connect 42 0 22 0;
#X connect 42 0 54 0;
#X connect 43 0 44 0;
#X connect 43 0 52 0;
#X connect 44 0 72 0;
#X connect 45 0 17 1;
#X connect 48 0 45 0;
#X connect 49 0 9 0;
#X connect 50 0 49 0;
#X connect 51 0 49 1;
#X connect 52 0 57 0;
#X connect 52 0 58 0;
#X connect 52 0 95 0;
#X connect 52 0 96 0;
#X connect 52 0 97 0;
#X connect 53 0 51 1;
#X connect 54 0 98 0;
#X connect 54 0 100 0;
#X connect 54 0 101 0;
#X connect 54 0 99 0;
#X connect 54 0 102 0;
#X connect 55 0 50 1;
#X connect 56 0 53 0;
#X connect 57 0 56 0;
#X connect 58 0 56 3;
#X connect 59 0 55 0;
#X connect 60 0 63 0;
#X connect 63 0 62 0;
#X connect 63 0 158 0;
#X connect 64 0 67 0;
#X connect 64 0 69 0;
#X connect 64 1 66 0;
#X connect 64 1 70 0;
#X connect 64 1 78 0;
#X connect 65 0 199 0;
#X connect 65 0 200 0;
#X connect 66 0 65 1;
#X connect 67 0 65 1;
#X connect 68 0 23 1;
#X connect 68 0 86 0;
#X connect 69 0 68 1;
#X connect 70 0 68 1;
#X connect 71 0 50 0;
#X connect 72 0 51 0;
#X connect 73 0 76 0;
#X connect 73 0 83 0;
#X connect 73 0 82 1;
#X connect 74 0 73 0;
#X connect 75 0 73 1;
#X connect 77 0 74 0;
#X connect 78 0 89 0;
#X connect 79 0 68 0;
#X connect 80 0 77 0;
#X connect 81 0 75 0;
#X connect 82 0 85 0;
#X connect 82 0 65 0;
#X connect 83 0 84 0;
#X connect 84 0 82 0;
#X connect 87 0 79 0;
#X connect 88 0 60 1;
#X connect 89 0 118 0;
#X connect 90 0 92 0;
#X connect 91 0 92 1;
#X connect 92 0 93 0;
#X connect 93 0 88 0;
#X connect 93 0 94 0;
#X connect 95 0 56 1;
#X connect 96 0 56 2;
#X connect 97 0 56 4;
#X connect 98 0 59 0;
#X connect 99 0 59 3;
#X connect 100 0 59 1;
#X connect 101 0 59 2;
#X connect 102 0 59 4;
#X connect 103 0 43 3;
#X connect 103 0 42 3;
#X connect 104 0 103 0;
#X connect 105 0 103 1;
#X connect 105 0 106 0;
#X connect 108 0 116 0;
#X connect 109 0 117 0;
#X connect 110 0 112 0;
#X connect 110 0 95 1;
#X connect 111 0 112 1;
#X connect 111 0 97 1;
#X connect 112 0 113 0;
#X connect 112 0 114 1;
#X connect 113 0 125 0;
#X connect 114 0 115 0;
#X connect 115 0 96 1;
#X connect 116 0 110 0;
#X connect 117 0 111 0;
#X connect 118 0 87 0;
#X connect 119 0 102 1;
#X connect 120 0 97 1;
#X connect 121 0 95 1;
#X connect 122 0 96 1;
#X connect 123 0 100 1;
#X connect 124 0 101 1;
#X connect 125 0 114 0;
#X connect 126 0 134 0;
#X connect 127 0 135 0;
#X connect 128 0 130 0;
#X connect 128 0 100 1;
#X connect 129 0 130 1;
#X connect 129 0 102 1;
#X connect 130 0 131 0;
#X connect 130 0 132 1;
#X connect 131 0 136 0;
#X connect 132 0 133 0;
#X connect 133 0 101 1;
#X connect 134 0 128 0;
#X connect 135 0 129 0;
#X connect 136 0 132 0;
#X connect 137 0 108 0;
#X connect 137 0 109 0;
#X connect 137 0 126 0;
#X connect 137 0 127 0;
#X connect 138 0 139 0;
#X connect 139 0 137 0;
#X connect 140 0 138 0;
#X connect 141 0 144 0;
#X connect 142 0 137 1;
#X connect 143 0 107 0;
#X connect 143 0 141 0;
#X connect 144 0 142 0;
#X connect 146 0 16 0;
#X connect 148 0 31 1;
#X connect 149 0 42 1;
#X connect 150 0 43 1;
#X connect 151 0 152 0;
#X connect 151 0 155 0;
#X connect 154 0 8 0;
#X connect 156 0 158 1;
#X connect 158 0 61 0;
#X connect 158 0 64 0;
#X connect 159 0 160 0;
#X connect 160 0 174 1;
#X connect 161 0 162 0;
#X connect 161 0 163 0;
#X connect 161 0 167 0;
#X connect 162 0 161 1;
#X connect 163 0 164 0;
#X connect 164 1 165 0;
#X connect 165 0 166 0;
#X connect 166 0 161 0;
#X connect 167 0 168 0;
#X connect 167 0 172 0;
#X connect 168 0 159 0;
#X connect 168 0 174 0;
#X connect 168 1 169 0;
#X connect 168 1 170 0;
#X connect 169 0 175 0;
#X connect 170 0 171 0;
#X connect 171 0 169 1;
#X connect 173 0 176 0;
#X connect 174 0 175 0;
#X connect 175 0 9 1;
#X connect 175 0 190 0;
#X connect 176 0 161 0;
#X connect 177 0 178 0;
#X connect 178 0 173 0;
#X connect 179 0 180 0;
#X connect 180 0 181 0;
#X connect 180 0 176 1;
#X connect 183 0 154 1;
#X connect 185 0 23 0;
#X connect 186 0 34 0;
#X connect 187 0 42 2;
#X connect 188 0 43 2;
#X connect 189 0 166 0;
#X connect 191 0 192 0;
#X connect 191 0 193 0;
#X connect 192 0 77 1;
#X connect 193 0 81 1;
#X connect 194 0 88 1;
#X connect 195 0 196 0;
#X connect 196 0 180 1;
#X connect 197 0 198 0;
#X connect 198 0 87 1;
#X connect 200 0 23 1;
#X coords 0 -1 1 1 230 145 1 100 100;
#X restore 812 613 pd ard4-synth;
#N canvas 385 209 924 714 ard5-synth 0;
#X obj 442 666 *~ 0.166667;
#X obj 405 82 inlet;
#X obj 364 82 inlet;
#X obj 488 82 inlet;
#X obj 446 82 inlet;
#X obj 569 82 inlet;
#X obj 528 82 inlet;
#X obj 651 82 inlet;
#X obj 610 82 inlet;
#X obj 443 689 outlet~;
#X obj 442 642 *~ 0;
#X obj 154 142 hsl 100 15 0 1 0 0 empty empty empty -2 -8 0 10 -262144
-1 -1 7100 1;
#X text 108 141 Volume;
#X floatatom 260 143 10 0 0 0 - - -, f 10;
#X floatatom 497 129 5 0 0 0 - - -, f 5;
#X obj 444 324 +;
#X obj 425 346 t b;
#X obj 440 436 -;
#X obj 401 234 metro 1000;
#X msg 401 190 1;
#X obj 400 211 tgl 15 0 empty empty empty 17 7 0 10 -262144 -1 -1 1
1;
#X obj 401 168 loadbang;
#X obj 469 155 + 1;
#X floatatom 512 180 5 0 0 0 - - -, f 5;
#X obj 466 124 /;
#X obj 467 175 * 2500;
#X obj 391 490 vlineMessagePacker;
#X msg 386 466 1;
#X msg 465 467 0;
#X obj 357 559 *~;
#X obj 387 513 vline~;
#X obj 394 437 t b;
#X obj 497 466 f;
#X obj 415 465 f;
#X obj 439 466 f;
#X obj 508 387 tgl 15 0 empty empty empty 17 7 0 10 -262144 -1 -1 0
1;
#X obj 339 526 noise~;
#X obj 398 544 pack 0 50;
#X obj 398 566 line;
#X obj 349 123 +;
#X obj 348 145 / 2;
#X obj 546 211 -;
#X floatatom 599 275 5 0 0 0 - - -, f 5;
#X floatatom 260 106 10 0 0 0 - - -, f 10;
#X obj 549 231 abs;
#X obj 574 110 +;
#X obj 616 109 +;
#X obj 602 138 +;
#X obj 604 160 / 4;
#X floatatom 631 162 5 0 0 0 - - -, f 5;
#X obj 568 190 pipe 2000;
#X obj 589 252 r \$0-hissingsensitivity;
#X text 120 121 Hiss;
#X obj 154 122 hsl 100 15 0 0.5 0 0 empty empty empty -2 -8 0 10 -262144
-1 -1 900 1;
#X floatatom 260 123 10 0 0 0 - - -, f 10;
#X obj 238 288 s \$0-hissingsensitivity;
#X obj 347 189 * 12000;
#X floatatom 336 233 10 0 0 0 - - -, f 10;
#X obj 348 167 pow 1.2;
#X obj 546 274 > 0.069;
#X obj 497 407 metro 700;
#X obj 530 318 expr if($f1 == $f2 \, 2 \, $f1);
#X obj 529 340 route 2;
#X obj 760 241 t b;
#X obj 760 285 /;
#X floatatom 798 306 5 0 0 0 - - -, f 5;
#X obj 737 170 log;
#X obj 759 200 /;
#X obj 773 167 log;
#X msg 759 263 200;
#X obj 626 294 pipe 100;
#X obj 394 291 + 10;
#X obj 399 595 bp~;
#X msg 419 367 125;
#X obj 392 267 random 40;
#X obj 482 268 random 40;
#X obj 474 292 + 25;
#X obj 140 287 s \$0-ard5volume;
#X obj 465 621 r \$0-ard5volume;
#X obj 671 147 r scaleFactor;
#X obj 670 170 * 0.2;
#X connect 0 0 9 0;
#X connect 1 0 24 0;
#X connect 2 0 39 0;
#X connect 3 0 39 1;
#X connect 3 0 45 1;
#X connect 4 0 24 1;
#X connect 4 0 66 0;
#X connect 5 0 41 0;
#X connect 6 0 45 0;
#X connect 7 0 46 1;
#X connect 7 0 68 0;
#X connect 8 0 46 0;
#X connect 10 0 0 0;
#X connect 11 0 13 0;
#X connect 11 0 77 0;
#X connect 15 0 16 0;
#X connect 15 0 17 1;
#X connect 16 0 73 0;
#X connect 17 0 34 1;
#X connect 18 0 74 0;
#X connect 18 0 75 0;
#X connect 19 0 20 0;
#X connect 20 0 18 0;
#X connect 21 0 19 0;
#X connect 22 0 25 0;
#X connect 24 0 14 0;
#X connect 24 0 22 0;
#X connect 25 0 23 0;
#X connect 25 0 18 1;
#X connect 26 0 30 0;
#X connect 27 0 26 0;
#X connect 28 0 26 3;
#X connect 29 0 72 0;
#X connect 30 0 29 1;
#X connect 31 0 27 0;
#X connect 31 0 28 0;
#X connect 31 0 32 0;
#X connect 31 0 33 0;
#X connect 31 0 34 0;
#X connect 32 0 26 4;
#X connect 33 0 26 1;
#X connect 34 0 26 2;
#X connect 35 0 60 0;
#X connect 36 0 29 0;
#X connect 37 0 38 0;
#X connect 38 0 72 1;
#X connect 39 0 40 0;
#X connect 40 0 58 0;
#X connect 41 0 44 0;
#X connect 44 0 43 0;
#X connect 44 0 59 0;
#X connect 45 0 47 0;
#X connect 46 0 47 1;
#X connect 47 0 48 0;
#X connect 48 0 49 0;
#X connect 48 0 50 0;
#X connect 50 0 41 1;
#X connect 51 0 59 1;
#X connect 53 0 54 0;
#X connect 53 0 55 0;
#X connect 56 0 37 0;
#X connect 56 0 57 0;
#X connect 58 0 56 0;
#X connect 59 0 42 0;
#X connect 59 0 61 0;
#X connect 59 0 70 0;
#X connect 60 0 31 0;
#X connect 61 0 62 0;
#X connect 62 1 35 0;
#X connect 63 0 69 0;
#X connect 64 0 65 0;
#X connect 64 0 60 1;
#X connect 66 0 67 0;
#X connect 67 0 63 0;
#X connect 67 0 64 1;
#X connect 68 0 67 1;
#X connect 69 0 64 0;
#X connect 70 0 61 1;
#X connect 71 0 15 0;
#X connect 71 0 33 1;
#X connect 72 0 10 0;
#X connect 73 0 17 0;
#X connect 74 0 71 0;
#X connect 75 0 76 0;
#X connect 76 0 32 1;
#X connect 76 0 15 1;
#X connect 78 0 10 1;
#X connect 79 0 80 0;
#X connect 80 0 50 1;
#X coords 0 -1 1 1 230 65 1 100 100;
#X restore 1045 615 pd ard5-synth;
#N canvas 81 93 1337 666 ard6-synth 0;
#X obj 439 34 inlet;
#X obj 487 32 inlet;
#X obj 623 44 inlet;
#X obj 669 42 inlet;
#X obj 723 27 inlet;
#X obj 784 27 inlet;
#X obj 907 22 inlet;
#X obj 958 26 inlet;
#X obj 772 620 outlet~;
#X obj 613 486 osc~;
#X obj 787 544 *~ 0.166667;
#X floatatom 458 296 5 0 0 0 - - -, f 5;
#X obj 678 524 monoDelay;
#X obj 739 359 *;
#X obj 366 122 r 1k-average;
#X obj 842 316 *;
#X obj 412 240 line;
#X obj 832 270 line;
#X obj 866 293 line;
#X obj 512 354 +;
#X obj 555 216 tgl 15 0 empty empty empty 17 7 0 10 -262144 -1 -1 1
1;
#X floatatom 873 317 5 0 0 0 - - -, f 5;
#X obj 922 145 -;
#X floatatom 977 189 5 0 0 0 - - -, f 5;
#X floatatom 260 107 10 0 0 0 - - -, f 10;
#X obj 927 124 pipe 5000;
#X obj 925 165 abs;
#X obj 849 390 spigot;
#X obj 933 211 route 0 1;
#X msg 890 343 0;
#X msg 883 365 1;
#X obj 1033 416 spigot;
#X msg 1065 346 0;
#X msg 1066 369 1;
#X floatatom 882 416 10 0 0 0 - - -, f 10;
#X msg 1004 347 0.166667;
#X obj 1012 372 -;
#X obj 997 232 t b;
#X obj 1018 281 / 10000;
#X floatatom 1033 438 5 0 0 0 - - -, f 5;
#X obj 1031 326 line;
#X obj 1031 303 pack 0 12000;
#X obj 854 515 line;
#X obj 521 309 random 125;
#X obj 521 331 - 62.5;
#X obj 553 163 loadbang;
#X msg 555 195 1;
#X obj 592 465 line;
#X obj 563 417 pack 0 1000;
#X obj 620 325 random 1000;
#X obj 621 346 - 500;
#X obj 624 370 + 1000;
#X msg 583 344 1000;
#X obj 611 393 +;
#X floatatom 643 392 5 0 0 0 - - -, f 5;
#X obj 854 492 pack 0 8000;
#X obj 1017 393 abs;
#X obj 153 123 hsl 100 15 1 100000 0 0 empty empty empty -2 -8 0 10
-262144 -1 -1 4700 1;
#X floatatom 261 124 10 0 0 0 - - -, f 10;
#X text 113 122 Delay;
#X text 107 162 Volume;
#X obj 153 163 hsl 100 15 0 1 0 0 empty empty empty -2 -8 0 10 -262144
-1 -1 5600 1;
#X floatatom 261 164 10 0 0 0 - - -, f 10;
#X obj 468 72 +;
#X obj 470 93 / 2;
#X obj 701 156 -;
#X msg 697 137 1;
#X obj 701 115 t b;
#X obj 702 175 / 2;
#X obj 686 196 +;
#X obj 654 76 +;
#X obj 662 105 / 2;
#X obj 411 178 +;
#X obj 411 200 / 2;
#X obj 943 58 +;
#X obj 756 55 +;
#X obj 857 71 +;
#X obj 859 95 / 4;
#X obj 412 294 * 7500;
#X obj 785 588 *~ 0;
#X obj 157 202 s \$0-ard6volume;
#X obj 251 195 s \$0-ard6delay;
#X obj 813 570 r \$0-ard6volume;
#X obj 705 449 r \$0-ard6delay;
#X obj 1071 158 r \$0-ard6vrate;
#X obj 925 188 > 0.016;
#X obj 153 143 hsl 100 15 0 0.5 0 0 empty empty empty -2 -8 0 10 -262144
-1 -1 100 1;
#X floatatom 261 144 10 0 0 0 - - -, f 10;
#X text 107 142 V-Rate;
#X obj 290 232 s \$0-ard6vrate;
#X floatatom 893 520 10 0 0 0 - - -, f 10;
#X obj 832 247 pack 0 20000;
#X obj 866 270 pack 0 10000;
#X obj 1017 263 random 4000;
#X obj 460 154 r scaleFactor;
#X obj 467 190 * 1.315;
#X obj 412 220 pack 0 13150;
#X obj 579 236 metro 27200;
#X obj 602 187 r scaleFactor;
#X obj 610 209 * 2.72;
#X obj 1101 249 r scaleFactor;
#X obj 1103 274 * 1.2;
#X obj 1015 65 r scaleFactor;
#X obj 1022 101 * 0.5;
#X obj 820 186 r scaleFactor;
#X obj 827 208 * 2.01;
#X obj 412 269 clip 0.2 1000;
#X obj 848 457 clip 0.005 0.166667;
#X connect 0 0 63 0;
#X connect 1 0 63 1;
#X connect 2 0 70 0;
#X connect 3 0 70 1;
#X connect 4 0 13 0;
#X connect 4 0 75 0;
#X connect 5 0 13 1;
#X connect 5 0 75 1;
#X connect 6 0 22 0;
#X connect 6 0 74 0;
#X connect 6 0 92 0;
#X connect 7 0 74 1;
#X connect 9 0 12 0;
#X connect 10 0 79 0;
#X connect 12 0 10 0;
#X connect 13 0 12 3;
#X connect 14 0 72 0;
#X connect 15 0 21 0;
#X connect 15 0 27 0;
#X connect 16 0 106 0;
#X connect 17 0 15 0;
#X connect 18 0 15 1;
#X connect 19 0 48 0;
#X connect 20 0 97 0;
#X connect 22 0 26 0;
#X connect 25 0 22 1;
#X connect 26 0 24 0;
#X connect 26 0 85 0;
#X connect 27 0 34 0;
#X connect 27 0 107 0;
#X connect 28 0 30 0;
#X connect 28 0 32 0;
#X connect 28 1 29 0;
#X connect 28 1 33 0;
#X connect 28 1 37 0;
#X connect 29 0 27 1;
#X connect 30 0 27 1;
#X connect 31 0 39 0;
#X connect 31 0 107 0;
#X connect 32 0 31 1;
#X connect 33 0 31 1;
#X connect 35 0 36 0;
#X connect 36 0 56 0;
#X connect 37 0 35 0;
#X connect 37 0 93 0;
#X connect 38 0 41 0;
#X connect 40 0 36 1;
#X connect 41 0 40 0;
#X connect 42 0 10 1;
#X connect 42 0 90 0;
#X connect 43 0 44 0;
#X connect 44 0 19 1;
#X connect 45 0 46 0;
#X connect 46 0 20 0;
#X connect 47 0 9 0;
#X connect 48 0 47 0;
#X connect 49 0 50 0;
#X connect 50 0 51 0;
#X connect 51 0 53 1;
#X connect 52 0 53 0;
#X connect 53 0 48 1;
#X connect 53 0 54 0;
#X connect 55 0 42 0;
#X connect 56 0 31 0;
#X connect 57 0 58 0;
#X connect 57 0 81 0;
#X connect 61 0 62 0;
#X connect 61 0 80 0;
#X connect 63 0 64 0;
#X connect 64 0 72 1;
#X connect 65 0 68 0;
#X connect 66 0 65 0;
#X connect 67 0 66 0;
#X connect 68 0 69 1;
#X connect 69 0 12 1;
#X connect 70 0 71 1;
#X connect 71 0 69 0;
#X connect 71 0 65 1;
#X connect 72 0 73 0;
#X connect 73 0 96 0;
#X connect 74 0 76 1;
#X connect 75 0 76 0;
#X connect 76 0 77 0;
#X connect 77 0 25 0;
#X connect 77 0 91 0;
#X connect 78 0 11 0;
#X connect 78 0 19 0;
#X connect 79 0 8 0;
#X connect 82 0 79 1;
#X connect 83 0 12 2;
#X connect 84 0 85 1;
#X connect 85 0 23 0;
#X connect 85 0 28 0;
#X connect 86 0 87 0;
#X connect 86 0 89 0;
#X connect 91 0 17 0;
#X connect 92 0 18 0;
#X connect 93 0 38 0;
#X connect 94 0 95 0;
#X connect 95 0 96 1;
#X connect 96 0 16 0;
#X connect 97 0 43 0;
#X connect 97 0 49 0;
#X connect 97 0 52 0;
#X connect 98 0 99 0;
#X connect 99 0 97 1;
#X connect 100 0 101 0;
#X connect 101 0 41 1;
#X connect 102 0 103 0;
#X connect 103 0 25 1;
#X connect 104 0 105 0;
#X connect 105 0 91 1;
#X connect 106 0 78 0;
#X connect 107 0 55 0;
#X coords 0 -1 1 1 230 85 1 100 100;
#X restore 1278 610 pd ard6-synth;
#X obj -21 792 s scaleFactor;
#X obj 137 752 hsl 128 15 0 50000 0 0 empty empty empty -2 -8 0 10
-262144 -1 -1 7500 1;
#X text 145 730 Scaling Factor;
#X floatatom 275 750 10 0 0 0 - - -, f 10;
#X obj 234 128 hsl 128 15 0 250 0 0 empty empty empty -2 -8 0 10 -262144
-1 -1 12700 1;
#X floatatom 368 128 5 0 0 0 - - -, f 5;
#X text 233 110 Data update rate;
#X obj 464 125 hsl 128 15 0 600000 0 0 empty empty empty -2 -8 0 10
-262144 -1 -1 8000 1;
#X floatatom 598 125 10 0 0 0 - - -, f 10;
#X text 463 107 Graph update rate;
#X text 659 108 Start graph;
#X text 773 104 Reset graph;
#X text 885 111 Listen to arduini;
#X floatatom 820 1033 5 0 0 0 - - -, f 5;
#X floatatom 820 1057 5 0 0 0 - - -, f 5;
#X floatatom 866 1059 5 0 0 0 - - -, f 5;
#X floatatom 907 1033 5 0 0 0 - - -, f 5;
#X floatatom 953 1035 5 0 0 0 - - -, f 5;
#X floatatom 907 1057 5 0 0 0 - - -, f 5;
#X floatatom 953 1059 5 0 0 0 - - -, f 5;
#X floatatom 865 1033 5 0 0 0 - - -, f 5;
#X floatatom 1082 1041 5 0 0 0 - - -, f 5;
#X floatatom 1082 1065 5 0 0 0 - - -, f 5;
#X floatatom 1128 1067 5 0 0 0 - - -, f 5;
#X floatatom 1169 1041 5 0 0 0 - - -, f 5;
#X floatatom 1215 1043 5 0 0 0 - - -, f 5;
#X floatatom 1169 1065 5 0 0 0 - - -, f 5;
#X floatatom 1215 1067 5 0 0 0 - - -, f 5;
#X floatatom 1127 1041 5 0 0 0 - - -, f 5;
#X floatatom 10 1022 5 0 0 0 - - -, f 5;
#X floatatom 10 1046 5 0 0 0 - - -, f 5;
#X floatatom 56 1048 5 0 0 0 - - -, f 5;
#X floatatom 97 1022 5 0 0 0 - - -, f 5;
#X floatatom 143 1024 5 0 0 0 - - -, f 5;
#X floatatom 97 1046 5 0 0 0 - - -, f 5;
#X floatatom 143 1048 5 0 0 0 - - -, f 5;
#X floatatom 55 1022 5 0 0 0 - - -, f 5;
#X floatatom 311 1032 5 0 0 0 - - -, f 5;
#X floatatom 311 1056 5 0 0 0 - - -, f 5;
#X floatatom 357 1058 5 0 0 0 - - -, f 5;
#X floatatom 398 1032 5 0 0 0 - - -, f 5;
#X floatatom 444 1034 5 0 0 0 - - -, f 5;
#X floatatom 398 1056 5 0 0 0 - - -, f 5;
#X floatatom 444 1058 5 0 0 0 - - -, f 5;
#X floatatom 356 1032 5 0 0 0 - - -, f 5;
#X floatatom 558 1032 5 0 0 0 - - -, f 5;
#X floatatom 558 1056 5 0 0 0 - - -, f 5;
#X floatatom 604 1058 5 0 0 0 - - -, f 5;
#X floatatom 645 1032 5 0 0 0 - - -, f 5;
#X floatatom 691 1034 5 0 0 0 - - -, f 5;
#X floatatom 645 1056 5 0 0 0 - - -, f 5;
#X floatatom 691 1058 5 0 0 0 - - -, f 5;
#X floatatom 603 1032 5 0 0 0 - - -, f 5;
#X floatatom 1375 1044 5 0 0 0 - - -, f 5;
#X floatatom 1375 1068 5 0 0 0 - - -, f 5;
#X floatatom 1421 1070 5 0 0 0 - - -, f 5;
#X floatatom 1462 1044 5 0 0 0 - - -, f 5;
#X floatatom 1508 1046 5 0 0 0 - - -, f 5;
#X floatatom 1462 1068 5 0 0 0 - - -, f 5;
#X floatatom 1508 1070 5 0 0 0 - - -, f 5;
#X floatatom 1420 1044 5 0 0 0 - - -, f 5;
#X obj 727 810 dac~ 1 2 3 4 5 6;
#X connect 0 0 19 0;
#X connect 1 0 0 1;
#X connect 2 0 26 0;
#X connect 3 0 2 1;
#X connect 4 0 30 0;
#X connect 5 0 4 1;
#X connect 6 0 34 0;
#X connect 7 0 6 1;
#X connect 8 0 4 0;
#X connect 9 0 6 0;
#X connect 10 0 38 0;
#X connect 11 0 10 1;
#X connect 12 0 42 0;
#X connect 13 0 12 1;
#X connect 14 0 10 0;
#X connect 15 0 0 0;
#X connect 16 0 2 0;
#X connect 17 0 12 0;
#X connect 19 0 62 0;
#X connect 20 0 19 1;
#X connect 21 0 22 0;
#X connect 23 0 19 3;
#X connect 25 0 19 2;
#X connect 26 0 64 0;
#X connect 27 0 26 1;
#X connect 28 0 26 3;
#X connect 29 0 26 2;
#X connect 30 0 66 0;
#X connect 31 0 30 1;
#X connect 32 0 30 3;
#X connect 33 0 30 2;
#X connect 34 0 68 0;
#X connect 35 0 34 1;
#X connect 36 0 34 3;
#X connect 37 0 34 2;
#X connect 38 0 70 0;
#X connect 39 0 38 1;
#X connect 40 0 38 3;
#X connect 41 0 38 2;
#X connect 42 0 72 0;
#X connect 43 0 42 1;
#X connect 44 0 42 3;
#X connect 45 0 42 2;
#X connect 46 0 19 4;
#X connect 47 0 26 4;
#X connect 48 0 30 4;
#X connect 49 0 34 4;
#X connect 50 0 38 4;
#X connect 51 0 42 4;
#X connect 52 0 53 0;
#X connect 54 0 61 0;
#X connect 55 0 1 0;
#X connect 56 0 3 0;
#X connect 57 0 5 0;
#X connect 58 0 7 0;
#X connect 59 0 11 0;
#X connect 60 0 13 0;
#X connect 62 0 63 0;
#X connect 63 0 75 0;
#X connect 63 1 74 0;
#X connect 64 0 65 0;
#X connect 65 0 76 0;
#X connect 65 1 77 0;
#X connect 66 0 67 0;
#X connect 67 0 78 0;
#X connect 67 1 81 0;
#X connect 68 0 69 0;
#X connect 69 0 79 0;
#X connect 69 1 82 0;
#X connect 70 0 71 0;
#X connect 71 0 80 0;
#X connect 71 1 83 0;
#X connect 72 0 73 0;
#X connect 73 0 84 0;
#X connect 73 1 97 0;
#X connect 85 0 159 0;
#X connect 86 0 159 1;
#X connect 87 0 159 2;
#X connect 88 0 159 3;
#X connect 89 0 159 4;
#X connect 90 0 159 5;
#X connect 91 0 158 0;
#X connect 92 0 158 1;
#X connect 93 0 158 2;
#X connect 94 0 158 3;
#X connect 95 0 96 0;
#X connect 98 0 158 5;
#X connect 99 0 158 4;
#X connect 101 0 144 0;
#X connect 101 0 145 0;
#X connect 101 0 146 0;
#X connect 101 0 130 0;
#X connect 101 0 147 0;
#X connect 101 0 148 0;
#X connect 101 0 150 0;
#X connect 101 0 149 0;
#X connect 101 0 151 0;
#X connect 101 0 152 0;
#X connect 101 0 153 0;
#X connect 101 0 154 0;
#X connect 101 0 155 0;
#X connect 101 0 156 0;
#X connect 110 0 113 0;
#X connect 111 0 113 1;
#X connect 112 0 113 2;
#X connect 114 0 113 4;
#X connect 115 0 113 5;
#X connect 116 0 114 0;
#X connect 118 0 117 4;
#X connect 119 0 117 5;
#X connect 120 0 118 0;
#X connect 121 0 117 0;
#X connect 122 0 117 1;
#X connect 123 0 117 2;
#X connect 124 0 106 0;
#X connect 125 0 109 0;
#X connect 126 0 107 0;
#X connect 127 0 108 0;
#X connect 128 0 133 0;
#X connect 129 0 132 0;
#X connect 130 0 131 0;
#X connect 134 0 137 0;
#X connect 135 0 138 0;
#X connect 136 0 139 0;
#X connect 141 0 140 0;
#X connect 142 0 105 0;
#X connect 143 0 104 0;
#X connect 144 0 100 0;
#X connect 145 0 129 0;
#X connect 146 0 128 0;
#X connect 147 0 135 0;
#X connect 148 0 134 0;
#X connect 149 0 136 0;
#X connect 150 0 141 0;
#X connect 151 0 127 0;
#X connect 152 0 126 0;
#X connect 153 0 142 0;
#X connect 154 0 125 0;
#X connect 155 0 124 0;
#X connect 156 0 143 0;
#X connect 158 0 217 0;
#X connect 159 0 216 0;
#X connect 160 0 167 0;
#X connect 160 0 168 0;
#X connect 160 0 163 0;
#X connect 160 0 169 0;
#X connect 160 0 170 0;
#X connect 160 0 172 0;
#X connect 160 0 171 0;
#X connect 161 0 166 0;
#X connect 162 0 165 0;
#X connect 163 0 164 0;
#X connect 167 0 162 0;
#X connect 168 0 161 0;
#X connect 169 0 183 0;
#X connect 170 0 185 0;
#X connect 171 0 184 0;
#X connect 172 0 186 0;
#X connect 174 0 173 0;
#X connect 175 0 187 2;
#X connect 176 0 188 2;
#X connect 177 0 188 1;
#X connect 178 0 187 1;
#X connect 183 0 179 0;
#X connect 184 0 180 0;
#X connect 185 0 181 0;
#X connect 186 0 182 0;
#X connect 187 0 102 0;
#X connect 187 0 218 0;
#X connect 188 0 103 0;
#X connect 188 0 219 0;
#X connect 189 0 187 4;
#X connect 190 0 187 4;
#X connect 191 0 187 3;
#X connect 192 0 187 3;
#X connect 193 0 188 4;
#X connect 194 0 188 4;
#X connect 195 0 188 3;
#X connect 196 0 188 3;
#X connect 197 0 199 0;
#X connect 198 0 199 1;
#X connect 199 0 220 0;
#X connect 199 0 255 0;
#X connect 199 1 220 1;
#X connect 199 1 262 0;
#X connect 199 2 220 2;
#X connect 199 2 258 0;
#X connect 199 3 220 3;
#X connect 199 3 259 0;
#X connect 199 4 220 4;
#X connect 199 4 256 0;
#X connect 199 5 220 5;
#X connect 199 5 257 0;
#X connect 199 6 220 6;
#X connect 199 6 260 0;
#X connect 199 7 220 7;
#X connect 199 7 261 0;
#X connect 200 0 221 0;
#X connect 200 0 263 0;
#X connect 200 1 221 1;
#X connect 200 1 270 0;
#X connect 200 2 221 2;
#X connect 200 2 266 0;
#X connect 200 3 221 3;
#X connect 200 3 267 0;
#X connect 200 4 221 4;
#X connect 200 4 264 0;
#X connect 200 5 221 5;
#X connect 200 5 265 0;
#X connect 200 6 221 6;
#X connect 200 6 268 0;
#X connect 200 7 221 7;
#X connect 200 7 269 0;
#X connect 201 0 222 0;
#X connect 201 0 271 0;
#X connect 201 1 222 1;
#X connect 201 1 278 0;
#X connect 201 2 222 2;
#X connect 201 2 274 0;
#X connect 201 3 222 3;
#X connect 201 3 275 0;
#X connect 201 4 222 4;
#X connect 201 4 272 0;
#X connect 201 5 222 5;
#X connect 201 5 273 0;
#X connect 201 6 222 6;
#X connect 201 6 276 0;
#X connect 201 7 222 7;
#X connect 201 7 277 0;
#X connect 202 0 223 0;
#X connect 202 0 239 0;
#X connect 202 1 223 1;
#X connect 202 1 246 0;
#X connect 202 2 223 2;
#X connect 202 2 242 0;
#X connect 202 3 223 3;
#X connect 202 3 243 0;
#X connect 202 4 223 4;
#X connect 202 4 240 0;
#X connect 202 5 223 5;
#X connect 202 5 241 0;
#X connect 202 6 223 6;
#X connect 202 6 244 0;
#X connect 202 7 223 7;
#X connect 202 7 245 0;
#X connect 203 0 224 0;
#X connect 203 0 247 0;
#X connect 203 1 224 1;
#X connect 203 1 254 0;
#X connect 203 2 224 2;
#X connect 203 2 250 0;
#X connect 203 3 224 3;
#X connect 203 3 251 0;
#X connect 203 4 224 4;
#X connect 203 4 248 0;
#X connect 203 5 224 5;
#X connect 203 5 249 0;
#X connect 203 6 224 6;
#X connect 203 6 252 0;
#X connect 203 7 224 7;
#X connect 203 7 253 0;
#X connect 204 0 225 0;
#X connect 204 0 279 0;
#X connect 204 1 225 1;
#X connect 204 1 286 0;
#X connect 204 2 225 2;
#X connect 204 2 282 0;
#X connect 204 3 225 3;
#X connect 204 3 283 0;
#X connect 204 4 225 4;
#X connect 204 4 280 0;
#X connect 204 5 225 5;
#X connect 204 5 281 0;
#X connect 204 6 225 6;
#X connect 204 6 284 0;
#X connect 204 7 225 7;
#X connect 204 7 285 0;
#X connect 205 0 200 0;
#X connect 206 0 200 1;
#X connect 207 0 201 0;
#X connect 208 0 201 1;
#X connect 209 0 202 0;
#X connect 210 0 202 1;
#X connect 211 0 203 0;
#X connect 212 0 203 1;
#X connect 213 0 204 0;
#X connect 214 0 204 1;
#X connect 215 0 157 0;
#X connect 220 0 287 0;
#X connect 221 0 287 1;
#X connect 222 0 287 2;
#X connect 223 0 287 3;
#X connect 224 0 287 4;
#X connect 225 0 287 5;
#X connect 227 0 226 0;
#X connect 227 0 229 0;
#X connect 230 0 18 0;
#X connect 230 0 231 0;
#X connect 233 0 234 0;
#X connect 233 0 24 0;
#X coords 0 -1 1 1 1410 770 1 100 100;
