#N canvas 434 351 450 300 10;
#X obj 56 53 inlet;
#X obj 95 53 inlet;
#X obj 164 54 inlet;
#X obj 221 51 inlet;
#X obj 264 57 inlet;
#X obj 51 149 pack 1 50;
#X obj 141 126 delay 50;
#X obj 139 105 t b;
#X obj 269 180 pack 0 25;
#X obj 266 132 f;
#X obj 170 238 outlet;
#X connect 0 0 5 0;
#X connect 0 0 7 0;
#X connect 1 0 5 1;
#X connect 2 0 6 1;
#X connect 3 0 9 1;
#X connect 4 0 8 1;
#X connect 5 0 10 0;
#X connect 6 0 9 0;
#X connect 7 0 6 0;
#X connect 8 0 10 0;
#X connect 9 0 8 0;
